<svg id="Layer_1" data-name="Layer 1" xmlns="http://www.w3.org/2000/svg" viewBox="0 0 376 333.92"><defs><style>.cls-1{fill:#4c1b8f;}.cls-2{fill:#ebebec;}.cls-3{fill:#8e0768;}.cls-4{fill:#fefefe;}</style></defs><path class="cls-1" d="M252.4,259.29a103.12,103.12,0,0,1-18.3,2.36,75.81,75.81,0,0,1-34.19-7c-22.45-10.59-36.75-27.69-42.6-51.28-.34-1.38-.86-1.85-2.39-1.84-17.17.06-34.35,0-51.53.06a28,28,0,0,1-5.72-.18c-4.8-1-7.87-4.72-8.39-10.16-.09-1-.07-1.93-.07-2.89q0-62.44,0-124.9a29.73,29.73,0,0,1,.08-4.53c.58-3.87,3.74-6.62,8.06-7,2.82-.24,5.66-.25,8.49-.36.78,0,1.55.11,2.33.11,14.06,0,28.11,0,42.17,0a4.14,4.14,0,0,1,4.1,2.2c3.57,5.94,7.33,11.77,10.92,17.7a3.36,3.36,0,0,0,3.35,1.82q43-.08,86,0a13.09,13.09,0,0,1,12.63,10c.56,2.6.1,5.22.4,7.81q0,13,0,26a6.35,6.35,0,0,1-3.47-.8c0-3.79-.12-7.58.06-11.36.09-1.9-.56-2.23-2.37-2.23q-83.49.08-167,0c-1.92,0-2.32.5-2.32,2.29q.09,42.12,0,84.24c0,.48,0,1,0,1.44.39,4.78,3.09,7.47,7.6,7.48,18,0,36.06,0,54.09,0,1.62,0,1.86-.5,1.65-1.89a70,70,0,0,1,.43-22c5.86-35.23,38.31-62,75.3-62.18a98.56,98.56,0,0,1,21.05,2.51,4.17,4.17,0,0,0,.73.37c31.95,9.14,54.24,35.64,55.73,67.83,1.34,29-11.34,51.58-36.37,67.55C266.61,254.53,259.57,257.09,252.4,259.29Zm-146.58-204c-2.55,0-5.11-.16-7.65,0-3.65.24-5.55,2.25-5.54,5.54,0,12,.12,24.07,0,36.11,0,2.25.71,2.61,2.82,2.61q83-.07,166.05,0c.43,0,.86,0,1.28,0,1,.11,1.54-.21,1.49-1.34-.11-2.34-.09-4.68-.12-7,0-1.72.16-3.44.06-5.15-.32-5.6-4.48-9.34-10.3-9.34q-43.44,0-86.87,0a3.91,3.91,0,0,1-3.93-2.09c-2.49-4.24-5.17-8.37-7.78-12.54C154,59.85,153,56.9,151,55.61s-5.37-.39-8.13-.39C130.52,55.21,118.17,55.26,105.82,55.29Zm126.69,203c39.38.14,72.67-30.62,73.5-69.81.85-39.71-32-72.88-73.64-72.82s-72.85,32.88-73.51,70.05C158.15,225.57,191.68,258.49,232.51,258.27Z" transform="translate(-12 -36)"/><path class="cls-2" d="M267.78,91.2c-.3-2.59.16-5.21-.4-7.81a13.09,13.09,0,0,0-12.63-10q-43,0-86,0a3.36,3.36,0,0,1-3.35-1.82c-3.59-5.93-7.35-11.76-10.92-17.7a4.14,4.14,0,0,0-4.1-2.2c-14.06.06-28.11,0-42.17,0-.78,0-1.55-.07-2.33-.11-.08-2.69-.16-5.32,2.19-7.43a7.88,7.88,0,0,1,5.36-2.1c17.39,0,34.78,0,52.17,0a2.82,2.82,0,0,1,2.68,1.6c3.72,6.08,7.53,12.09,11.23,18.18a3.47,3.47,0,0,0,3.43,1.76q43.23-.08,86.47,0C276,63.52,281,68.31,281,74.68c0,4.88,0,9.77,0,14.65,0,1.43-.41,1.93-1.92,1.9C275.31,91.14,271.55,91.2,267.78,91.2Z" transform="translate(-12 -36)"/><path class="cls-2" d="M264.26,116.39a6.35,6.35,0,0,0,3.47.8c2.1,1.47,4.65,1.93,7,2.93a76.45,76.45,0,0,1,20.61,13.2A72.12,72.12,0,0,1,317.79,171a74.55,74.55,0,0,1,1.6,11.77c.83,10-.95,19.63-4.3,29a69,69,0,0,1-13,22c-1.59,1.84-3.53,3.36-4.94,5.36a8.5,8.5,0,0,0-2.54,2.42,24.89,24.89,0,0,0-5.51,4.38c-1.15.51-2.35,1-2.92,2.19-2.6.79-4.71,2.49-7.09,3.69a83.07,83.07,0,0,1-25.76,7.83.86.86,0,0,1-.91-.37c7.17-2.2,14.21-4.76,20.52-8.78,25-16,37.71-38.53,36.37-67.55-1.49-32.19-23.78-58.69-55.73-67.83a4.17,4.17,0,0,1-.73-.37c.5-.62,1.1-.35,1.73-.23C257.79,115.17,261,115.77,264.26,116.39Z" transform="translate(-12 -36)"/><path class="cls-1" d="M286.16,248.14c.57-1.23,1.77-1.68,2.92-2.19.82.75,1.56,2,2.48,2.13,1.08.17,1.3-1.54,2.2-2.17.34-.24.56-.66.91-.86,2.21-1.22,1.68-2.36-.08-3.48a8.5,8.5,0,0,1,2.54-2.42c1.46,2,3.06,2.72,5.86,2.17,5-1,9.5.69,13.16,4.25Q330.31,259.3,344.46,273c6.23,6.07,6.29,15.43.19,21.28a15.85,15.85,0,0,1-22-.25q-14.1-13.64-28.16-27.31a14.09,14.09,0,0,1-4.5-13.13,2.86,2.86,0,0,0-1.22-3.07C287.87,249.78,287,248.94,286.16,248.14Zm59.34,36.38a11.69,11.69,0,0,0-3.64-9.16q-14.14-13.73-28.29-27.42a12,12,0,0,0-16.8-.14,11.13,11.13,0,0,0-.17,16.14q14.41,14.19,29.06,28.14c3.62,3.44,8.09,4.08,12.81,2.19A10.92,10.92,0,0,0,345.5,284.52Z" transform="translate(-12 -36)"/><path class="cls-1" d="M23.17,194.47q13.17-6.89,26.35-13.78a2.27,2.27,0,0,1,1.82-.06q5.59,1.59,11.22,3.12a3.72,3.72,0,0,1,2.37,1.9l17.8,31.64c2.31,4.1,1.63,6.3-2.65,8.54q-14.33,7.46-28.64,14.91a12.14,12.14,0,0,1-3.55,1.31c-2.73,0-4.38-1.38-5.6-3.68q-9.78-18.5-19.72-36.9C21.16,198.87,21.23,196.66,23.17,194.47ZM73.51,225.9c1.82-.9,3.64-1.79,5.45-2.72,2.52-1.3,2.76-2.09,1.38-4.55-4.74-8.42-9.47-16.85-14.26-25.25-1-1.77-1.59-4.65-3.25-5s-3.71,1.59-5.6,2.52c-.92.45-1.78,1.22-2.92.51-1.18-2.11-2.42-4.19-3.51-6.35-.64-1.29-1.19-1.62-2.65-.84-7.2,3.84-14.47,7.54-21.71,11.3-2.59,1.35-2.87,2.19-1.49,4.78q6.3,11.79,12.63,23.57,3.68,6.85,7.33,13.71c.78,1.46,1.86,2.34,3.59,1.44Q61,232.49,73.51,225.9Zm-20-41.77c1.77,4.88,2,5,5.52,2.55.09-.07.12-.21.23-.41Z" transform="translate(-12 -36)"/><path class="cls-2" d="M23.17,194.47c-1.94,2.19-2,4.4-.6,7q10,18.39,19.72,36.9c1.22,2.3,2.87,3.68,5.6,3.68a23.9,23.9,0,0,1-9.33,4.85c-2,.51-3.16-.75-4-2.31-2-3.62-4.05-7.22-6-10.86q-7.41-13.66-14.75-27.35c-.77-1.43-2-2.67-1.72-4.53.13-.84.11-1.68.89-2.2C16.12,197.52,19.37,195.48,23.17,194.47Z" transform="translate(-12 -36)"/><path class="cls-3" d="M21.75,349.71c0,5.06,0,9.87,0,14.68a15.8,15.8,0,0,1-.23,3.08,2.51,2.51,0,0,1-2.5,2.14,2.61,2.61,0,0,1-2.87-2,4.53,4.53,0,0,1-.22-1.42q0-11.66,0-23.33A3.57,3.57,0,0,1,17.16,340c1.88-1.59,4.11-1.15,5.72,1.19,3.72,5.44,7.41,10.91,11.12,16.36.41.61.86,1.19,1.36,1.89.62-.65.41-1.29.41-1.85,0-4.74,0-9.49,0-14.24a9.53,9.53,0,0,1,.24-2.45,2.41,2.41,0,0,1,2.34-1.79,2.67,2.67,0,0,1,2.74,1.56,4.84,4.84,0,0,1,.34,2.22v22.5c0,1.71-.1,3.44-2.11,4.09a4.12,4.12,0,0,1-5-1.86c-3.71-5.37-7.36-10.77-11-16.15A3.77,3.77,0,0,0,21.75,349.71Z" transform="translate(-12 -36)"/><path class="cls-3" d="M312.37,349.94c0,4.8,0,9.6,0,14.4a16.62,16.62,0,0,1-.22,3.08,2.54,2.54,0,0,1-2.67,2.19,2.59,2.59,0,0,1-2.76-2.1,7.09,7.09,0,0,1-.17-1.84q0-11.06,0-22.09a4.4,4.4,0,0,1,1-3.46c1.8-1.74,4.28-1.37,5.89,1,3.73,5.44,7.41,10.9,11.12,16.35.42.62.87,1.21,1.35,1.88.74-.52.45-1.19.45-1.73,0-4.75,0-9.5,0-14.25a9.91,9.91,0,0,1,.17-2.25,2.49,2.49,0,0,1,2.57-2,2.54,2.54,0,0,1,2.7,1.9,8,8,0,0,1,.22,2.24c0,7.29,0,14.59,0,21.88,0,1.83,0,3.74-2.26,4.4s-3.84-.46-5-2.2c-3.57-5.21-7.11-10.43-10.67-15.65-.42-.61-.86-1.21-1.29-1.82Z" transform="translate(-12 -36)"/><path class="cls-3" d="M253.93,339c9.55,0,15.51,6.39,14.95,16-.32,5.42-2,10.18-7.26,12.93-10.23,5.31-21.4-.53-22.52-11.72-.72-7.17,2-13,7.43-15.64A16.57,16.57,0,0,1,253.93,339Zm8.68,15.81a14.34,14.34,0,0,0-1.31-6.79,7.84,7.84,0,0,0-7.12-4.46c-3.18-.1-5.78,1.1-7.24,3.83a13.88,13.88,0,0,0,0,13.67,7.37,7.37,0,0,0,7,4,7.79,7.79,0,0,0,7.15-4A12.65,12.65,0,0,0,262.61,354.85Z" transform="translate(-12 -36)"/><path class="cls-3" d="M76.71,353.75c.13,7.92-3.61,13.49-10,15.26-7,1.94-14.41-.21-17.49-5.54A17.32,17.32,0,0,1,49.36,345c3-5,9.32-6.94,16.35-5.52a13,13,0,0,1,10.67,11.18C76.57,351.8,76.63,353,76.71,353.75Zm-6.28.64a13.24,13.24,0,0,0-1.27-6.22,7.81,7.81,0,0,0-7.46-4.56A7.46,7.46,0,0,0,54.4,348a14.24,14.24,0,0,0,.05,12.6,7.53,7.53,0,0,0,7.11,4.43A7.79,7.79,0,0,0,68.88,361,13.32,13.32,0,0,0,70.43,354.39Z" transform="translate(-12 -36)"/><path class="cls-3" d="M92.58,354.34c0-3.58,0-7.16,0-10.74,0-2.73,1.06-3.69,3.89-3.72,3.06,0,6.11,0,9.16,0,6.88.09,11.31,3.72,12.6,10.26a22.46,22.46,0,0,1,0,9c-1.3,6.29-5.55,9.84-12.14,10-3.26.1-6.53.05-9.79,0-2.61,0-3.6-.95-3.64-3.51-.07-3.78,0-7.57,0-11.35Zm6.14.13c0,1.58,0,3.16,0,4.74.07,1.77-.82,4.17.38,5.12s3.51.32,5.34.32c3.9,0,6.27-1.71,7.3-5.34a18.45,18.45,0,0,0,.21-9c-.76-3.49-2.68-5.24-6.32-5.7-1.81-.23-3.67-.1-5.51-.22-1.12-.07-1.46.33-1.44,1.4C98.77,348.7,98.72,351.58,98.72,354.47Z" transform="translate(-12 -36)"/><path class="cls-3" d="M338.88,354.49c0-3.64,0-7.29,0-10.94,0-2.63,1.06-3.63,3.73-3.66,3.12,0,6.25-.05,9.37,0,6.87.1,11.27,3.73,12.56,10.3a22.46,22.46,0,0,1-.07,9c-1.33,6.35-5.7,9.88-12.39,10-3.13.05-6.25,0-9.37,0-2.77,0-3.76-.91-3.81-3.56-.06-3.71,0-7.43,0-11.15Zm6.14.1c0,2.81.06,5.63,0,8.45,0,1.22.25,1.76,1.62,1.65s2.84,0,4.26,0c3.63,0,5.91-1.53,7-4.88a17.2,17.2,0,0,0,.12-10.36,6.4,6.4,0,0,0-5.54-4.76,58.93,58.93,0,0,0-5.93-.25c-1.24-.08-1.57.38-1.54,1.52C345.07,348.81,345,351.7,345,354.59Z" transform="translate(-12 -36)"/><path class="cls-3" d="M299.71,350.83c0,2.68.08,5.37,0,8-.26,6.62-3.93,10.28-10.68,10.74a24.43,24.43,0,0,1-6.55-.43c-5.06-1-8-4.29-8.22-9.87s-.13-11.41-.09-17.11a3,3,0,1,1,6.07,0c.1,4.54,0,9.08.06,13.62,0,1,0,2.06.1,3.09.52,5.27,4.5,7.62,9.66,5.71,2.19-.82,3-2.58,3.31-4.66.5-3.91.14-7.83.23-11.75.05-2.06-.05-4.13.07-6.18a2.85,2.85,0,0,1,3.09-3,2.94,2.94,0,0,1,3,3.12c.07,2.88,0,5.77,0,8.66Z" transform="translate(-12 -36)"/><path class="cls-3" d="M148.49,366.48a3,3,0,0,1-2.26,3,2.58,2.58,0,0,1-3.22-1.34,39.92,39.92,0,0,1-2-4.55,1.88,1.88,0,0,0-2.12-1.48c-3.19.11-6.38.08-9.57,0a1.58,1.58,0,0,0-1.82,1.26c-.47,1.43-1.09,2.82-1.69,4.22-.7,1.61-1.85,2.42-3.7,1.78-1.68-.59-2.37-2-1.66-3.89,1.25-3.35,2.66-6.65,4-10q2.57-6.33,5.12-12.65c.83-2.08,1.9-3.87,4.6-3.87s3.81,1.71,4.68,3.8c2.89,7,5.82,14,8.72,21C148,364.8,148.26,365.8,148.49,366.48Zm-9.77-8.92c-1.51-4.05-3-8-4.56-12.28-1.57,4.32-3,8.25-4.47,12.28Z" transform="translate(-12 -36)"/><path class="cls-3" d="M199.18,366.53a2.93,2.93,0,0,1-2.19,3,2.56,2.56,0,0,1-3.24-1.28,43.84,43.84,0,0,1-2.17-4.91,1.51,1.51,0,0,0-1.7-1.14c-3.26.05-6.53.07-9.79,0a1.68,1.68,0,0,0-1.91,1.42c-.48,1.43-1.11,2.82-1.72,4.2-.69,1.55-1.86,2.28-3.57,1.66a2.66,2.66,0,0,1-1.8-3.65c.55-1.7,1.28-3.35,1.95-5q3.61-8.91,7.24-17.81c.55-1.35,1.11-2.7,2.52-3.45,2.53-1.34,5.29-.14,6.58,2.91,2.15,5.08,4.24,10.18,6.36,15.27.92,2.23,1.87,4.45,2.77,6.68C198.81,365.14,199,366,199.18,366.53Zm-14.31-21.27c-1.59,4.39-3,8.31-4.45,12.27h9C187.92,353.51,186.49,349.65,184.87,345.26Z" transform="translate(-12 -36)"/><path class="cls-3" d="M214.28,354.67c0-3.64,0-7.29,0-10.94,0-2.91,1-3.83,4-3.85,4.61,0,9.23,0,13.84,0,1.67,0,3.24.15,3.37,2.24.1,1.56-1,2.3-3.27,2.31-3.41,0-6.82.05-10.23,0-1.18,0-1.63.28-1.55,1.48.13,1.91-.62,4.41.36,5.58s3.72.3,5.68.38c1.48.07,3,0,4.47,0s2.46.75,2.47,2.26-1,2.24-2.47,2.26c-2.9,0-5.82.08-8.72,0-1.34,0-1.86.25-1.8,1.67.12,2.68.07,5.36,0,8.05,0,2.24-1.13,3.49-3,3.52s-3.11-1.17-3.15-3.39c-.08-3.85,0-7.7,0-11.56Z" transform="translate(-12 -36)"/><path class="cls-3" d="M156.11,356.05c0-3-.15-6.06,0-9.07.13-1.94-.59-2.34-2.36-2.17a44.21,44.21,0,0,1-4.46,0c-1.69,0-3-.57-3-2.43s1.23-2.52,2.93-2.52q10,0,20,0c1.68,0,3,.71,2.93,2.54s-1.28,2.34-2.86,2.4a41.32,41.32,0,0,1-5.1,0c-1.69-.15-2,.51-1.95,2,.08,5.91,0,11.82,0,17.73,0,.55,0,1.11,0,1.65-.14,2.33-1.15,3.47-3.06,3.46s-3-1.26-3.08-3.46,0-4.4,0-6.6Z" transform="translate(-12 -36)"/><path class="cls-1" d="M334.41,60.81c0-1.79-.06-3.58,0-5.36.06-1.18-.38-1.53-1.57-1.51-3.34.07-6.68,0-10,0-.5,0-1,0-1.49,0-1.12-.09-2-.61-1.94-1.76s.86-1.59,2.06-1.58c3.63,0,7.25-.08,10.87.06,1.77.07,2.13-.57,2.08-2.11-.09-3.3,0-6.61,0-9.91,0-1.31.13-2.72,1.87-2.65,1.51.07,1.74,1.34,1.73,2.62,0,3.51,0,7,0,10.53,0,1.17.36,1.53,1.57,1.5,3.69-.06,7.38,0,11.07,0,1.24,0,2.4.12,2.36,1.66S351.78,54,350.56,54c-3.41,0-6.83.14-10.22-.05-2.07-.12-2.45.62-2.38,2.41.14,3.23.05,6.46,0,9.7,0,1.24-.14,2.5-1.81,2.49s-1.76-1.31-1.77-2.53C334.4,64.26,334.42,62.54,334.41,60.81Z" transform="translate(-12 -36)"/><path class="cls-1" d="M29.92,54.21c0,4.41,0,4.41,4.66,4.41,1.13,0,2.27,0,3.4,0s1.88.58,1.86,1.8S39,62,38,62.05c-2.19.07-4.39.1-6.59,0-1.23,0-1.58.39-1.53,1.53.08,1.85,0,3.71,0,5.56,0,1.25,0,2.52-1.68,2.57s-1.78-1.21-1.77-2.46c0-1.93,0-3.85,0-5.77,0-1.1-.4-1.44-1.48-1.42-2.12,0-4.25,0-6.37,0-1.24,0-2.35-.36-2.28-1.83s1.11-1.63,2.28-1.63c2,0,4-.09,6,0,1.43.08,2-.29,1.91-1.79-.13-2,0-4,0-6,0-1.13.47-1.9,1.72-1.89s1.71.8,1.71,1.91S29.92,53.11,29.92,54.21Z" transform="translate(-12 -36)"/><path class="cls-3" d="M388,344.27c-.41,4.44-.79,8.75-1.22,13.06a7.84,7.84,0,0,1-.54,2,1.73,1.73,0,0,1-3.14-.08,13.13,13.13,0,0,1-.62-2.8c-.33-4.33-.58-8.65-.86-13a5.43,5.43,0,0,1,.31-2.43,3,3,0,0,1,3.16-2,2.44,2.44,0,0,1,2.58,2.26C387.84,342.33,387.9,343.36,388,344.27Z" transform="translate(-12 -36)"/><path class="cls-1" d="M367.12,165.55a7.76,7.76,0,1,1-7.77-7.65A7.65,7.65,0,0,1,367.12,165.55Zm-2.16-.12a5.6,5.6,0,1,0-5.66,5.49A5.59,5.59,0,0,0,365,165.43Z" transform="translate(-12 -36)"/><path class="cls-3" d="M387.92,366.67a3,3,0,0,1-3.11,2.95,3,3,0,0,1-3.19-2.7,3.16,3.16,0,0,1,6.3-.25Z" transform="translate(-12 -36)"/><path class="cls-4" d="M264.26,116.39c-3.24-.62-6.47-1.22-9.7-1.86-.63-.12-1.23-.39-1.73.23a98.56,98.56,0,0,0-21.05-2.51c-37,.15-69.44,26.95-75.3,62.18a70,70,0,0,0-.43,22c.21,1.39,0,1.9-1.65,1.89-18-.05-36.06,0-54.09,0-4.51,0-7.21-2.7-7.6-7.48,0-.48,0-1,0-1.44q0-42.12,0-84.24c0-1.79.4-2.29,2.32-2.29q83.49.09,167,0c1.81,0,2.46.33,2.37,2.23C264.14,108.81,264.26,112.6,264.26,116.39Z" transform="translate(-12 -36)"/><path class="cls-4" d="M232.51,258.27c-40.83.22-74.36-32.7-73.65-72.58.66-37.17,31.75-70,73.51-70s74.49,33.11,73.64,72.82C305.18,227.65,271.89,258.41,232.51,258.27ZM167.11,187c.08,35,29.14,63.16,65.22,63.28,35.23.12,65.39-27.34,65.44-63.26.05-35.25-29.16-63.32-65.32-63.42S167,152.1,167.11,187Z" transform="translate(-12 -36)"/><path class="cls-2" d="M105.82,55.29c12.35,0,24.7-.08,37-.07,2.76,0,6-1,8.13.39s3,4.24,4.35,6.47c2.61,4.17,5.29,8.3,7.78,12.54a3.91,3.91,0,0,0,3.93,2.09q43.44-.06,86.87,0c5.82,0,10,3.74,10.3,9.34.1,1.71,0,3.43-.06,5.15-1.14,0-2.27,0-3.41,0H118.14c-1.14,0-2.28.08-3.41,0-3.26-.28-6-1.38-7.46-4.55a17.2,17.2,0,0,1-1.41-7.2C105.78,71.38,105.83,63.33,105.82,55.29Z" transform="translate(-12 -36)"/><path class="cls-4" d="M105.82,55.29c0,8,0,16.09,0,24.14a17.2,17.2,0,0,0,1.41,7.2c1.48,3.17,4.2,4.27,7.46,4.55,1.13.1,2.27,0,3.41,0H260.75c1.14,0,2.27,0,3.41,0,0,2.33,0,4.67.12,7,.05,1.13-.44,1.45-1.49,1.34-.42,0-.85,0-1.28,0q-83,0-166,0c-2.11,0-2.84-.36-2.82-2.61.11-12,0-24.08,0-36.11,0-3.29,1.89-5.3,5.54-5.54C100.71,55.13,103.27,55.28,105.82,55.29Z" transform="translate(-12 -36)"/><path class="cls-4" d="M294.59,241.57c1.76,1.12,2.29,2.26.08,3.48-.35.2-.57.62-.91.86-.9.63-1.12,2.34-2.2,2.17-.92-.14-1.66-1.38-2.48-2.13A24.89,24.89,0,0,1,294.59,241.57Z" transform="translate(-12 -36)"/><path class="cls-2" d="M73.51,225.9Q61,232.47,48.5,239c-1.73.9-2.81,0-3.59-1.44q-3.66-6.85-7.33-13.71Q31.26,212.09,25,200.31c-1.38-2.59-1.1-3.43,1.49-4.78,7.24-3.76,14.51-7.46,21.71-11.3,1.46-.78,2-.45,2.65.84,1.09,2.16,2.33,4.24,3.51,6.35-.12,1.62,1,2.75,1.65,4.11.92,2.08,3,3.67,2.86,6.19a2.07,2.07,0,0,0-1.83,0q-10,5-20.07,9.94c-.82.4-1.27,1-.86,1.8a1.29,1.29,0,0,0,2,.51c.18-.1.39-.17.58-.26q9.56-4.74,19.12-9.46a3,3,0,0,0,1.61-1.55,9.56,9.56,0,0,1,3.79,6.36,4.08,4.08,0,0,0-2,.56c-2.83,1.42-5.68,2.8-8.52,4.2-3.59,1.77-7.18,3.56-10.78,5.32-.85.41-1.53.93-1.07,1.91s1.35.8,2.18.41l.58-.26q9.46-4.68,18.93-9.34A3.54,3.54,0,0,0,64,210.59c1.94,1.28,2.43,3.45,3.47,5.29L45.68,226.56c-.81.4-1.28.93-.86,1.8s1.17.87,2,.49l.77-.35L68.75,218ZM51.7,197.08c0-1.14-1.11-1.57-2.56-.86-5.17,2.54-10.32,5.12-15.49,7.68-.83.41-1.83.79-1.29,1.95s1.61.8,2.52.35l15.67-7.79C51.13,198.12,51.69,197.83,51.7,197.08Z" transform="translate(-12 -36)"/><path class="cls-4" d="M73.51,225.9,68.75,218c.18-1,.14-2-1.26-2.12-1-1.84-1.53-4-3.47-5.29l-.88-1.49a9.56,9.56,0,0,0-3.79-6.36l-.53-1c.11-2.52-1.94-4.11-2.86-6.19-.6-1.36-1.77-2.49-1.65-4.11,1.14.71,2-.06,2.92-.51,1.89-.93,4-2.84,5.6-2.52s2.24,3.22,3.25,5c4.79,8.4,9.52,16.83,14.26,25.25,1.38,2.46,1.14,3.25-1.38,4.55C77.15,224.11,75.33,225,73.51,225.9Z" transform="translate(-12 -36)"/><path class="cls-2" d="M53.51,184.13l5.75,2.14c-.11.2-.14.34-.23.41C55.55,189.13,55.28,189,53.51,184.13Z" transform="translate(-12 -36)"/><path class="cls-4" d="M365,165.43a5.6,5.6,0,0,1-11.19.07,5.6,5.6,0,0,1,11.19-.07Zm-9-.12a3.75,3.75,0,0,0,3.34,3.43,3.83,3.83,0,0,0,3.45-3.11,3.26,3.26,0,0,0-3.24-3.38A3.29,3.29,0,0,0,356,165.31Z" transform="translate(-12 -36)"/><path class="cls-1" d="M167.11,187c-.07-34.92,29.3-63.5,65.34-63.4s65.37,28.17,65.32,63.42c0,35.92-30.21,63.38-65.44,63.26C196.25,250.18,167.19,222,167.11,187ZM294.23,187c0-33.08-27.62-59.83-61.64-59.94-33.57-.12-61.39,26.3-62,58.83-.64,33.3,27,60.83,61,61C266.56,247.09,294.23,220.47,294.23,187Z" transform="translate(-12 -36)"/><path class="cls-1" d="M67.49,215.88c1.4.16,1.44,1.08,1.26,2.12L47.56,228.5l-.77.35c-.8.38-1.55.39-2-.49s0-1.4.86-1.8Z" transform="translate(-12 -36)"/><path class="cls-1" d="M58.82,201.72l.53,1a3,3,0,0,1-1.61,1.55q-9.57,4.71-19.12,9.46c-.19.09-.4.16-.58.26a1.29,1.29,0,0,1-2-.51c-.41-.83,0-1.4.86-1.8q10-4.95,20.07-9.94A2.07,2.07,0,0,1,58.82,201.72Z" transform="translate(-12 -36)"/><path class="cls-1" d="M63.14,209.1l.88,1.49a3.54,3.54,0,0,1-1.57,1.31q-9.48,4.65-18.93,9.34l-.58.26c-.83.39-1.71.58-2.18-.41s.22-1.5,1.07-1.91c3.6-1.76,7.19-3.55,10.78-5.32,2.84-1.4,5.69-2.78,8.52-4.2A4.08,4.08,0,0,1,63.14,209.1Z" transform="translate(-12 -36)"/><path class="cls-1" d="M51.7,197.08c0,.75-.57,1-1.15,1.33L34.88,206.2c-.91.45-1.94.9-2.52-.35s.46-1.54,1.29-1.95c5.17-2.56,10.32-5.14,15.49-7.68C50.59,195.51,51.7,195.94,51.7,197.08Z" transform="translate(-12 -36)"/><path class="cls-2" d="M356,165.31a3.29,3.29,0,0,1,3.55-3.06,3.26,3.26,0,0,1,3.24,3.38,3.83,3.83,0,0,1-3.45,3.11A3.75,3.75,0,0,1,356,165.31Z" transform="translate(-12 -36)"/></svg>