<svg width="705" height="555" viewBox="0 0 705 555" fill="none" xmlns="http://www.w3.org/2000/svg">
<path d="M374.044 88.3174L295.757 9.56802C289.559 3.40656 281.164 -0.0361143 272.424 0.000285737H66.0373C48.5213 0.000285737 31.7253 6.95869 19.344 19.3443C6.95853 31.7246 0 48.5216 0 66.0376V87.855L374.044 88.3174Z" fill="#F26419"/>
<path d="M638.417 114.571L0.017334 115.388V488.722C0.017334 506.232 6.97574 523.028 19.3613 535.415C31.7416 547.795 48.5387 554.754 66.0547 554.754H638.415C655.931 554.754 672.727 547.795 685.108 535.415C697.493 523.03 704.452 506.232 704.452 488.722V181.068C704.541 163.484 697.629 146.584 685.239 134.11C672.848 121.631 655.999 114.599 638.416 114.568L638.417 114.571Z" fill="#F26419"/>
</svg>
