<svg id="Layer_1" data-name="Layer 1" xmlns="http://www.w3.org/2000/svg" viewBox="0 0 1920 1080"><defs><style>.cls-1{fill:#662d91;}.cls-2{font-size:72px;fill:#47566f;font-family:Gadugi;}</style></defs><path class="cls-1" d="M609.16,385.89H526.73V302.72h-139V386H313.12v82.3h72.64V479c0,57.34-.1,114.67.11,172a122.33,122.33,0,0,0,2.43,24.61c7.58,35.85,33.93,51.6,68,57.78A257.72,257.72,0,0,0,498.23,737c33.67.51,67.36.17,102.21.17-7,17-17.79,29.5-32.9,38.56-19.87,11.92-42.12,15.62-64.87,15.73q-112.18.51-224.38-.06a161,161,0,0,1-34-4c-42.47-9.45-68-39.12-71.52-82.38-.93-11.36-1.42-22.78-1.43-34.18q-.16-156.6.11-313.21c0-14.17.95-28.65,4-42.45,9.71-43.67,41.58-69.75,88.85-70.91,59.21-1.44,118.47-1,177.72-1.1,24.92,0,49.88-.13,74.76.94,55,2.36,89.47,35.93,92.2,89.67C609.89,350.87,609.16,368,609.16,385.89Z"/><path class="cls-1" d="M677.73,683V426H752.2c.83,4.36,1.66,8.75,2.28,12,49.22-17.9,96.24-24.94,141.49,10.89-1,.08-.29.24,0,0,28.41-25.08,62.94-25.51,98.36-23.9,34.17,1.55,63,22.66,64.21,55.93,2.43,67.2.72,134.55.72,202.64H983.4V666c0-51.27.07-102.54,0-153.81,0-19.7-5.66-25.13-25.37-25.34-6.66-.07-13.32,0-20,0-27.25,0-31.26,4-31.28,31.26q0,73.68,0,147.34v18.11H830.19V666q0-76.9,0-153.81c0-19.74-5.6-25.13-25.33-25.34-7.22-.08-14.43,0-21.65,0-24.81.05-29.62,4.81-29.65,29.68q-.06,73.66,0,147.33V683Z"/><path class="cls-1" d="M1821.63,615.83v67.41H1586.36V349.05h234.81v66.17H1667.29v61.95H1790.6v67.5H1667.23v71.16Z"/><path class="cls-1" d="M472.78,474.35h139.9V675.86c-15.78,0-31.26,0-46.74,0-23.33-.06-46.67.18-70-.37-16.71-.39-23.89-5.25-23.92-15.33q-.19-90.45,0-180.92A35.63,35.63,0,0,1,472.78,474.35Z"/><path class="cls-1" d="M1249.92,532.51c0-12-.86-21.21.19-30.23,1.9-16.36-6-20.53-21.31-20.06-26.6.8-53.24.22-79.87.22h-18.74V425c9.67,0,18.86,0,28,0,37.17.06,74.34-.38,111.49.34s56.28,19.31,56.56,55.51c.5,64.19.18,128.39.16,192.58,0,3.12-.53,6.24-.87,10h-74.8c-.55-6.08-1.09-12.18-1.91-21.37-29.54,31-65.26,24.89-99.12,19-37.9-6.6-58-42.74-52.66-87,4.29-35.31,33.19-61.11,69.6-61.56C1193.72,532.24,1220.77,532.51,1249.92,532.51Zm-1,45c-19.74,0-38-1.33-55.92.68-6.77.76-17.21,8.79-17.81,14.34-.94,8.63,3.94,25.11,8.37,25.79,17.79,2.71,37.65,4.51,54.25-.78C1254.17,612.29,1250.46,593.84,1248.89,577.47Z"/><rect class="cls-1" x="250.37" y="338.61" width="137.36" height="70.62"/><path class="cls-1" d="M1403,484.11h-39.18V425.19h39.34V363h75.58v61.65H1535v58.77h-55.27c0,44.68-.33,87.14.61,129.57.08,3.55,8.49,9.37,13.51,9.91,13.08,1.41,26.44.47,40.89.47v62.47c-32-1.78-64.55-1.55-96.42-6.07-22.57-3.2-34.83-23.75-35.16-50.65-.52-42.06-.2-84.14-.23-126.22C1403,497.1,1403,491.31,1403,484.11Z"/><rect class="cls-1" x="471.98" y="282.98" width="101.99" height="70.62"/><rect class="cls-1" x="471.98" y="341.84" width="137.36" height="70.62"/><text class="cls-2" transform="translate(1428.38 778.98)">Version 0.1.1</text></svg>