<?xml version="1.0" encoding="UTF-8"?>
<svg id="Layer_1" data-name="Layer 1" xmlns="http://www.w3.org/2000/svg" xmlns:xlink="http://www.w3.org/1999/xlink" viewBox="0 0 322.95 108.5">
  <defs>
    <style>
      .cls-1 {
        fill: url(#linear-gradient-2);
      }

      .cls-2 {
        fill: #f26419;
      }

      .cls-3 {
        fill: url(#linear-gradient-6);
      }

      .cls-4 {
        fill: #662d91;
      }

      .cls-5 {
        fill: url(#linear-gradient-5);
      }

      .cls-6 {
        fill: #f6ae2d;
      }

      .cls-7 {
        fill: url(#linear-gradient-7);
      }

      .cls-8 {
        fill: url(#linear-gradient-3);
      }

      .cls-9 {
        fill: url(#linear-gradient);
      }

      .cls-10 {
        fill: url(#linear-gradient-4);
      }
    </style>
    <linearGradient id="linear-gradient" x1="111.1" y1="49.5" x2="300.96" y2="89.4" gradientUnits="userSpaceOnUse">
      <stop offset="0" stop-color="#662d91"/>
      <stop offset="1" stop-color="#7e4baa"/>
    </linearGradient>
    <linearGradient id="linear-gradient-2" x1="112.07" y1="44.89" x2="301.93" y2="84.79" xlink:href="#linear-gradient"/>
    <linearGradient id="linear-gradient-3" x1="112.39" y1="43.33" x2="302.25" y2="83.23" xlink:href="#linear-gradient"/>
    <linearGradient id="linear-gradient-4" x1="113.78" y1="36.71" x2="303.64" y2="76.61" xlink:href="#linear-gradient"/>
    <linearGradient id="linear-gradient-5" x1="115.29" y1="29.57" x2="305.15" y2="69.47" xlink:href="#linear-gradient"/>
    <linearGradient id="linear-gradient-6" x1="117.02" y1="21.34" x2="306.88" y2="61.23" xlink:href="#linear-gradient"/>
    <linearGradient id="linear-gradient-7" x1="117.33" y1="19.82" x2="307.19" y2="59.72" xlink:href="#linear-gradient"/>
  </defs>
  <g>
    <path class="cls-9" d="m121.29,68.54c-2.62-1.37-4.65-3.32-6.08-5.85-1.43-2.53-2.14-5.49-2.14-8.86s.74-6.45,2.21-9.02c1.47-2.58,3.57-4.57,6.29-5.99,2.72-1.41,5.89-2.12,9.51-2.12s6.61.68,9.23,2.05c2.62,1.37,4.65,3.32,6.08,5.85,1.43,2.53,2.14,5.49,2.14,8.86s-.74,6.45-2.21,9.02c-1.47,2.58-3.57,4.57-6.28,5.99-2.72,1.41-5.89,2.12-9.51,2.12s-6.61-.68-9.23-2.05Zm16.02-8.01c1.64-1.67,2.46-3.91,2.46-6.7s-.81-5.25-2.44-7c-1.63-1.75-3.78-2.62-6.45-2.62-1.81,0-3.41.39-4.79,1.17-1.38.78-2.44,1.88-3.18,3.29-.74,1.41-1.1,3.01-1.1,4.79,0,2.92.81,5.24,2.44,6.98,1.63,1.73,3.78,2.6,6.45,2.6s4.96-.84,6.61-2.51Z"/>
    <path class="cls-1" d="m169.62,68.79c-1.93,1.01-4.13,1.52-6.58,1.52-2.76,0-4.85-.78-6.26-2.33-1.41-1.55-2.12-3.84-2.12-6.88v-7.74h-3.64v-6.35h3.64v-5.48l8.33-.92v6.4h5.2v6.35h-5.2v7.46c0,1.72.77,2.58,2.3,2.58.83,0,1.66-.17,2.49-.51l1.84,5.89Z"/>
    <path class="cls-8" d="m177.1,68.84c-1.89-.95-3.34-2.31-4.35-4.08-1.01-1.76-1.52-3.83-1.52-6.19s.53-4.55,1.59-6.38c1.06-1.83,2.58-3.23,4.56-4.21,1.98-.98,4.29-1.47,6.93-1.47s4.71.48,6.58,1.43c1.87.95,3.32,2.31,4.33,4.08,1.01,1.77,1.52,3.83,1.52,6.19s-.53,4.55-1.59,6.38c-1.06,1.83-2.57,3.23-4.54,4.21-1.96.98-4.27,1.47-6.91,1.47s-4.72-.48-6.61-1.43Zm10.11-6.65c.83-.91,1.24-2.11,1.24-3.61,0-1.63-.4-2.92-1.2-3.89-.8-.97-1.84-1.45-3.13-1.45-1.38,0-2.49.45-3.34,1.36-.84.91-1.27,2.11-1.27,3.61,0,1.63.4,2.92,1.2,3.89.8.97,1.86,1.45,3.18,1.45s2.49-.45,3.31-1.36Z"/>
    <path class="cls-10" d="m235.83,49.1c1.54,1.73,2.3,4.09,2.3,7.07v13.58h-8.38v-12.75c0-1.07-.25-1.89-.76-2.46-.51-.57-1.24-.85-2.19-.85s-1.77.31-2.35.92-.88,1.44-.88,2.49v12.66h-8.29v-12.75c0-1.1-.25-1.96-.76-2.55-.51-.6-1.24-.9-2.19-.9s-1.77.32-2.35.97c-.58.64-.88,1.5-.88,2.58v12.66h-8.38v-22.75h7.46c0,1.32-.15,2.76-.46,4.33h.14c1.38-3.22,3.73-4.83,7.04-4.83,1.69,0,3.12.41,4.3,1.22s1.99,1.91,2.42,3.29c.71-1.57,1.75-2.71,3.13-3.43,1.38-.72,2.95-1.08,4.7-1.08,2.7,0,4.82.87,6.35,2.6Z"/>
    <path class="cls-5" d="m261.84,48.64c1.9,1.46,2.86,3.74,2.86,6.84v14.27h-7.69c0-1.2.09-2.64.28-4.33h-.14c-.52,1.38-1.45,2.52-2.79,3.41-1.33.89-2.92,1.33-4.77,1.33-2.33,0-4.21-.67-5.64-2.03-1.43-1.35-2.14-3.12-2.14-5.3,0-2.3.84-4.12,2.51-5.46,1.67-1.33,3.89-2,6.65-2,2.03,0,3.82.32,5.39.97v-.05c0-1.32-.36-2.27-1.08-2.85-.72-.58-1.9-.88-3.52-.88-2,0-4.33.41-7,1.24l-1.38-5.62c1.72-.61,3.32-1.06,4.79-1.34s3.08-.41,4.83-.41c3.99,0,6.94.73,8.84,2.19Zm-6.68,14.43c.71-.55,1.13-1.32,1.29-2.3-1.32-.52-2.55-.78-3.68-.78-.86,0-1.52.18-1.98.53-.46.35-.69.85-.69,1.5,0,.58.21,1.04.64,1.38.43.34,1.03.51,1.8.51,1.04,0,1.92-.28,2.62-.83Z"/>
    <path class="cls-3" d="m286.66,68.79c-1.93,1.01-4.13,1.52-6.58,1.52-2.76,0-4.85-.78-6.26-2.33-1.41-1.55-2.12-3.84-2.12-6.88v-7.74h-3.64v-6.35h3.64v-5.48l8.33-.92v6.4h5.2v6.35h-5.2v7.46c0,1.72.77,2.58,2.3,2.58.83,0,1.66-.17,2.49-.51l1.84,5.89Z"/>
    <path class="cls-7" d="m311.85,60.59h-15.1c.25,1.11.87,1.96,1.87,2.56,1,.6,2.03.9,3.11.9,2.12,0,4.01-.63,5.66-1.89l3.41,4.74c-1.17,1.07-2.57,1.9-4.21,2.49-1.64.58-3.42.88-5.32.88-2.43,0-4.61-.42-6.56-1.27-1.95-.84-3.51-2.15-4.67-3.91-1.17-1.76-1.75-3.97-1.75-6.61s.61-4.86,1.82-6.65c1.21-1.8,2.77-3.13,4.67-4.01,1.9-.88,3.91-1.31,6.03-1.31s4.14.43,5.87,1.29c1.73.86,3.09,2.1,4.08,3.73.98,1.63,1.47,3.56,1.47,5.8,0,1.2-.12,2.29-.37,3.27Zm-13.97-7.09c-.75.68-1.16,1.64-1.22,2.9h7.6c.12-1.26-.18-2.22-.9-2.9-.72-.67-1.63-1.01-2.74-1.01s-1.99.34-2.74,1.01Z"/>
  </g>
  <g>
    <circle class="cls-4" cx="57.21" cy="53.64" r="44.34"/>
    <g>
      <path class="cls-6" d="m32.25,68.19v-29.46h12.51l-.04,27.48c0,1.09.88,1.98,1.98,1.98h23.03v10.42h-35.54c-1.09,0-1.98-.88-1.98-1.98v-8.45h.04Z"/>
      <path class="cls-2" d="m82.18,39.09v29.46h-12.51l.04-27.48c0-1.09-.88-1.98-1.98-1.98h-23.03v-10.42h35.54c1.09,0,1.98.88,1.98,1.98v8.45h-.04Z"/>
    </g>
  </g>
</svg>