<svg id="Layer_1" data-name="Layer 1" xmlns="http://www.w3.org/2000/svg" viewBox="0 0 2042.94 637.56"><defs><style>.cls-1,.cls-2{fill:#fff;}.cls-2{font-size:81.34px;font-family:Gadugi;}</style></defs><path class="cls-1" d="M527.5,343.72H434.38v-94H277.29v94.11H193.05v93h82.07v12.09c0,64.77-.11,129.55.12,194.32A137.33,137.33,0,0,0,278,671.06c8.56,40.5,38.33,58.29,76.82,65.27a290.62,290.62,0,0,0,47.36,4.1c38.05.58,76.11.19,115.48.19-7.86,19.16-20.1,33.34-37.17,43.57C458,797.65,432.9,801.83,407.2,802q-126.75.59-253.5-.06a182.12,182.12,0,0,1-38.36-4.47c-48-10.67-76.84-44.19-80.81-93.07-1-12.83-1.59-25.73-1.61-38.6q-.18-176.93.13-353.85c.05-16,1.07-32.37,4.53-47.95,11-49.35,47-78.81,100.37-80.11,66.9-1.63,133.85-1.11,200.78-1.25,28.16-.06,56.35-.14,84.47,1.06,62.15,2.67,101.07,40.59,104.15,101.3C528.33,304.16,527.5,323.46,527.5,343.72Z" transform="translate(-32.8 -182.56)"/><path class="cls-1" d="M605,679.32V389H689.1c.93,4.92,1.87,9.88,2.57,13.55,55.6-20.22,108.73-28.18,159.85,12.3-1.14.1-.33.28,0,0,32.1-28.34,71.11-28.83,111.12-27,38.6,1.75,71.18,25.6,72.54,63.18C1038,527,1036,603,1036,680H950.29V660.14c0-57.92.08-115.84,0-173.76,0-22.26-6.4-28.4-28.67-28.63-7.52-.08-15,0-22.57,0-30.78,0-35.32,4.53-35.33,35.32q0,83.22,0,166.44V680H777.21V660.14q0-86.88,0-173.77c0-22.29-6.33-28.39-28.63-28.62-8.15-.09-16.3,0-24.45,0-28,.06-33.47,5.43-33.5,33.52q-.08,83.22,0,166.45v21.61Z" transform="translate(-32.8 -182.56)"/><path class="cls-1" d="M1897.27,603.5v76.15h-265.8V302.1h265.28v74.76H1722.91v70h139.3V523.1H1722.84v80.4Z" transform="translate(-32.8 -182.56)"/><path class="cls-1" d="M373.43,443.66H531.48V671.31c-17.83,0-35.32,0-52.81,0-26.35-.06-52.73.21-79-.41-18.88-.44-27-5.94-27-17.32q-.23-102.2,0-204.39A38.75,38.75,0,0,1,373.43,443.66Z" transform="translate(-32.8 -182.56)"/><path class="cls-1" d="M1251.39,509.36c0-13.52-1-23.95.22-34.15,2.14-18.48-6.78-23.18-24.08-22.66-30,.9-60.15.25-90.23.25h-21.17V388c10.92,0,21.3,0,31.68,0,42,.06,84-.44,126,.37s63.57,21.82,63.89,62.72c.57,72.52.21,145,.18,217.57,0,3.52-.59,7-1,11.32h-84.51c-.61-6.87-1.22-13.75-2.15-24.13-33.37,35-73.72,28.11-112,21.44-42.82-7.45-65.55-48.28-59.49-98.27,4.84-39.89,37.5-69,78.63-69.54C1187.9,509.06,1218.45,509.36,1251.39,509.36Zm-1.17,50.8c-22.29,0-43-1.51-63.17.77-7.65.86-19.44,9.92-20.12,16.19-1.06,9.76,4.46,28.38,9.46,29.14,20.09,3.07,42.53,5.09,61.29-.88C1256.2,599.49,1252,578.65,1250.22,560.16Z" transform="translate(-32.8 -182.56)"/><rect class="cls-1" x="89.35" y="107.75" width="155.18" height="79.78"/><path class="cls-1" d="M1424.28,454.68H1380V388.12h44.44V317.86h85.39v69.65h63.63V453.9h-62.43c0,50.47-.38,98.44.69,146.37.09,4,9.59,10.59,15.26,11.2,14.78,1.6,29.87.54,46.2.54v70.57c-36.13-2-72.94-1.76-108.93-6.86-25.5-3.61-39.36-26.83-39.73-57.22-.59-47.52-.22-95.06-.26-142.59Z" transform="translate(-32.8 -182.56)"/><rect class="cls-1" x="339.71" y="44.9" width="115.23" height="79.78"/><rect class="cls-1" x="339.71" y="111.4" width="155.18" height="79.78"/><text class="cls-2" transform="translate(1420.19 605.25)">Version 0.1.1</text></svg>