<?xml version="1.0" encoding="UTF-8"?>
<svg id="Layer_1" data-name="Layer 1" xmlns="http://www.w3.org/2000/svg" viewBox="0 0 369.73 132.96">
  <defs>
    <style>
      .cls-1 {
        fill: #fff;
      }

      .cls-2 {
        fill: #f26419;
      }

      .cls-3 {
        fill: #662d91;
      }

      .cls-4 {
        fill: #f6ae2d;
      }
    </style>
  </defs>
  <g>
    <path class="cls-1" d="m167.25,51.66c-2.62-1.37-4.65-3.32-6.08-5.85-1.43-2.53-2.14-5.49-2.14-8.86s.74-6.45,2.21-9.02c1.47-2.58,3.57-4.57,6.29-5.99,2.72-1.41,5.89-2.12,9.51-2.12s6.61.68,9.23,2.05c2.62,1.37,4.65,3.32,6.08,5.85,1.43,2.53,2.14,5.49,2.14,8.86s-.74,6.45-2.21,9.02c-1.47,2.58-3.57,4.57-6.28,5.99-2.72,1.41-5.89,2.12-9.51,2.12s-6.61-.68-9.23-2.05Zm16.02-8.01c1.64-1.67,2.46-3.91,2.46-6.7s-.81-5.25-2.44-7c-1.63-1.75-3.78-2.62-6.45-2.62-1.81,0-3.41.39-4.79,1.17-1.38.78-2.44,1.88-3.18,3.29-.74,1.41-1.1,3.01-1.1,4.79,0,2.92.81,5.24,2.44,6.98,1.63,1.73,3.78,2.6,6.45,2.6s4.96-.84,6.61-2.51Z"/>
    <path class="cls-1" d="m215.57,51.91c-1.93,1.01-4.13,1.52-6.58,1.52-2.76,0-4.85-.78-6.26-2.33-1.41-1.55-2.12-3.84-2.12-6.88v-7.74h-3.64v-6.35h3.64v-5.48l8.33-.92v6.4h5.2v6.35h-5.2v7.46c0,1.72.77,2.58,2.3,2.58.83,0,1.66-.17,2.49-.51l1.84,5.89Z"/>
    <path class="cls-1" d="m223.06,51.96c-1.89-.95-3.34-2.31-4.35-4.08-1.01-1.76-1.52-3.83-1.52-6.19s.53-4.55,1.59-6.38c1.06-1.83,2.58-3.23,4.56-4.21,1.98-.98,4.29-1.47,6.93-1.47s4.71.48,6.58,1.43c1.87.95,3.32,2.31,4.33,4.08,1.01,1.77,1.52,3.83,1.52,6.19s-.53,4.55-1.59,6.38c-1.06,1.83-2.57,3.23-4.54,4.21-1.96.98-4.27,1.47-6.91,1.47s-4.72-.48-6.61-1.43Zm10.11-6.65c.83-.91,1.24-2.11,1.24-3.61,0-1.63-.4-2.92-1.2-3.89-.8-.97-1.84-1.45-3.13-1.45-1.38,0-2.49.45-3.34,1.36-.84.91-1.27,2.11-1.27,3.61,0,1.63.4,2.92,1.2,3.89.8.97,1.86,1.45,3.18,1.45s2.49-.45,3.31-1.36Z"/>
    <path class="cls-1" d="m281.79,32.23c1.54,1.73,2.3,4.09,2.3,7.07v13.58h-8.38v-12.75c0-1.07-.25-1.89-.76-2.46-.51-.57-1.24-.85-2.19-.85s-1.77.31-2.35.92-.88,1.44-.88,2.49v12.66h-8.29v-12.75c0-1.1-.25-1.96-.76-2.55-.51-.6-1.24-.9-2.19-.9s-1.77.32-2.35.97c-.58.64-.88,1.5-.88,2.58v12.66h-8.38v-22.75h7.46c0,1.32-.15,2.76-.46,4.33h.14c1.38-3.22,3.73-4.83,7.04-4.83,1.69,0,3.12.41,4.3,1.22s1.99,1.91,2.42,3.29c.71-1.57,1.75-2.71,3.13-3.43,1.38-.72,2.95-1.08,4.7-1.08,2.7,0,4.82.87,6.35,2.6Z"/>
    <path class="cls-1" d="m307.8,31.77c1.9,1.46,2.86,3.74,2.86,6.84v14.27h-7.69c0-1.2.09-2.64.28-4.33h-.14c-.52,1.38-1.45,2.52-2.79,3.41-1.33.89-2.92,1.33-4.77,1.33-2.33,0-4.21-.67-5.64-2.03-1.43-1.35-2.14-3.12-2.14-5.3,0-2.3.84-4.12,2.51-5.46,1.67-1.33,3.89-2,6.65-2,2.03,0,3.82.32,5.39.97v-.05c0-1.32-.36-2.27-1.08-2.85-.72-.58-1.9-.88-3.52-.88-2,0-4.33.41-7,1.24l-1.38-5.62c1.72-.61,3.32-1.06,4.79-1.34s3.08-.41,4.83-.41c3.99,0,6.94.73,8.84,2.19Zm-6.68,14.43c.71-.55,1.13-1.32,1.29-2.3-1.32-.52-2.55-.78-3.68-.78-.86,0-1.52.18-1.98.53-.46.35-.69.85-.69,1.5,0,.58.21,1.04.64,1.38.43.34,1.03.51,1.8.51,1.04,0,1.92-.28,2.62-.83Z"/>
    <path class="cls-1" d="m332.62,51.91c-1.93,1.01-4.13,1.52-6.58,1.52-2.76,0-4.85-.78-6.26-2.33-1.41-1.55-2.12-3.84-2.12-6.88v-7.74h-3.64v-6.35h3.64v-5.48l8.33-.92v6.4h5.2v6.35h-5.2v7.46c0,1.72.77,2.58,2.3,2.58.83,0,1.66-.17,2.49-.51l1.84,5.89Z"/>
    <path class="cls-1" d="m357.8,43.72h-15.1c.25,1.11.87,1.96,1.87,2.56,1,.6,2.03.9,3.11.9,2.12,0,4.01-.63,5.66-1.89l3.41,4.74c-1.17,1.07-2.57,1.9-4.21,2.49-1.64.58-3.42.88-5.32.88-2.43,0-4.61-.42-6.56-1.27-1.95-.84-3.51-2.15-4.67-3.91-1.17-1.76-1.75-3.97-1.75-6.61s.61-4.86,1.82-6.65c1.21-1.8,2.77-3.13,4.67-4.01,1.9-.88,3.91-1.31,6.03-1.31s4.14.43,5.87,1.29c1.73.86,3.09,2.1,4.08,3.73.98,1.63,1.47,3.56,1.47,5.8,0,1.2-.12,2.29-.37,3.27Zm-13.97-7.09c-.75.68-1.16,1.64-1.22,2.9h7.6c.12-1.26-.18-2.22-.9-2.9-.72-.67-1.63-1.01-2.74-1.01s-1.99.34-2.74,1.01Z"/>
    <path class="cls-1" d="m169.71,75.71v24.82h15.56v7.41h-24.31v-32.23h8.75Z"/>
    <path class="cls-1" d="m192.85,107.02c-1.89-.95-3.34-2.31-4.35-4.08-1.01-1.76-1.52-3.83-1.52-6.19s.53-4.55,1.59-6.38c1.06-1.83,2.58-3.23,4.56-4.21,1.98-.98,4.29-1.47,6.93-1.47s4.71.48,6.58,1.43c1.87.95,3.32,2.31,4.33,4.08,1.01,1.77,1.52,3.83,1.52,6.19s-.53,4.55-1.59,6.38c-1.06,1.83-2.57,3.23-4.54,4.21-1.96.98-4.27,1.47-6.91,1.47s-4.72-.48-6.61-1.43Zm10.11-6.65c.83-.91,1.24-2.11,1.24-3.61,0-1.63-.4-2.92-1.2-3.89-.8-.97-1.84-1.45-3.13-1.45-1.38,0-2.49.45-3.34,1.36-.84.91-1.27,2.11-1.27,3.61,0,1.63.4,2.92,1.2,3.89.8.97,1.86,1.45,3.18,1.45s2.49-.45,3.31-1.36Z"/>
    <path class="cls-1" d="m222.55,118.67c-1.77-.37-3.68-1.06-5.73-2.07l2.53-6.03c1.75.74,3.3,1.24,4.65,1.5s2.69.39,4.01.39c3.07,0,4.76-1.37,5.07-4.1l.41-4.19-.14-.05c-.58,1.14-1.49,2.06-2.72,2.76-1.23.71-2.69,1.06-4.37,1.06-2.15,0-4.06-.44-5.73-1.31s-2.99-2.16-3.94-3.87c-.95-1.7-1.43-3.77-1.43-6.19,0-2.27.46-4.31,1.38-6.1.92-1.8,2.21-3.21,3.87-4.24,1.66-1.03,3.53-1.54,5.62-1.54,1.84,0,3.49.46,4.95,1.38s2.42,2.07,2.88,3.45h.14c-.18-1.69-.28-3.13-.28-4.33h7.5v22.65c0,3.74-1.19,6.58-3.57,8.5-2.38,1.92-5.53,2.88-9.46,2.88-2,0-3.88-.18-5.64-.55Zm8.93-18.53c.84-.94,1.27-2.14,1.27-3.61s-.39-2.77-1.17-3.71c-.78-.94-1.83-1.4-3.15-1.4-1.44,0-2.62.46-3.52,1.38-.91.92-1.36,2.1-1.36,3.54,0,1.57.43,2.83,1.29,3.78.86.95,2.01,1.43,3.45,1.43,1.29,0,2.36-.47,3.2-1.4Z"/>
    <path class="cls-1" d="m247.39,82.36c-.89-.81-1.33-1.85-1.33-3.11s.44-2.34,1.33-3.15,2.04-1.22,3.45-1.22,2.52.41,3.41,1.22c.89.81,1.33,1.86,1.33,3.15s-.45,2.3-1.33,3.11c-.89.81-2.03,1.22-3.41,1.22s-2.56-.41-3.45-1.22Zm7.55,25.58h-8.38v-22.75h8.38v22.75Z"/>
    <path class="cls-1" d="m264.93,107.02c-1.93-.95-3.42-2.32-4.44-4.1-1.03-1.78-1.54-3.87-1.54-6.26s.53-4.5,1.59-6.31,2.56-3.21,4.51-4.19c1.95-.98,4.2-1.47,6.75-1.47,1.54,0,3,.2,4.4.6,1.4.4,2.63.98,3.71,1.75l-3.36,5.76c-1.23-.92-2.61-1.38-4.14-1.38s-2.82.47-3.75,1.4c-.94.94-1.4,2.16-1.4,3.66,0,1.6.45,2.87,1.36,3.82.91.95,2.11,1.43,3.62,1.43,1.69,0,3.22-.57,4.6-1.7l3.54,5.66c-2.64,1.84-5.51,2.76-8.61,2.76-2.61,0-4.88-.48-6.81-1.43Z"/>
    <path class="cls-1" d="m285.86,106.49c-1.21-1.34-1.82-3.32-1.82-5.96v-24.82h8.38v23.67c0,1.57.61,2.35,1.84,2.35.77,0,1.52-.15,2.26-.46l1.34,5.8c-.74.46-1.71.81-2.92,1.06-1.21.25-2.42.37-3.62.37-2.42,0-4.24-.67-5.46-2Z"/>
    <path class="cls-1" d="m319.27,86.83c1.9,1.46,2.86,3.74,2.86,6.84v14.27h-7.69c0-1.2.09-2.64.28-4.33h-.14c-.52,1.38-1.45,2.52-2.79,3.41-1.33.89-2.92,1.33-4.77,1.33-2.33,0-4.21-.67-5.64-2.03-1.43-1.35-2.14-3.12-2.14-5.3,0-2.3.84-4.12,2.51-5.46,1.67-1.33,3.89-2,6.65-2,2.03,0,3.82.32,5.39.97v-.05c0-1.32-.36-2.27-1.08-2.85-.72-.58-1.9-.88-3.52-.88-2,0-4.33.41-7,1.24l-1.38-5.62c1.72-.61,3.32-1.06,4.79-1.34s3.08-.41,4.83-.41c3.99,0,6.94.73,8.84,2.19Zm-6.68,14.43c.71-.55,1.13-1.32,1.29-2.3-1.32-.52-2.55-.78-3.68-.78-.86,0-1.52.18-1.98.53-.46.35-.69.85-.69,1.5,0,.58.21,1.04.64,1.38.43.34,1.03.51,1.8.51,1.04,0,1.92-.28,2.62-.83Z"/>
    <path class="cls-1" d="m337.78,107.34c-1.32-.74-2.35-1.75-3.08-3.04h-.14c.09,1.17.14,2.38.14,3.64h-7.46v-32.23h8.47v4.83c0,1.72-.07,3.25-.21,4.58-.14,1.33-.41,2.8-.81,4.4h.14c.8-1.44,1.9-2.61,3.29-3.5,1.4-.89,2.95-1.34,4.67-1.34,1.9,0,3.61.47,5.11,1.4,1.5.94,2.69,2.29,3.57,4.08s1.31,3.87,1.31,6.26-.45,4.41-1.36,6.24c-.91,1.83-2.16,3.25-3.78,4.26-1.61,1.01-3.4,1.52-5.36,1.52-1.69,0-3.19-.37-4.51-1.11Zm5.43-7.04c.86-.92,1.29-2.13,1.29-3.64s-.41-2.82-1.22-3.78c-.81-.95-1.91-1.43-3.29-1.43s-2.45.46-3.29,1.38c-.84.92-1.27,2.13-1.27,3.64s.4,2.82,1.2,3.78c.8.95,1.89,1.43,3.27,1.43s2.46-.46,3.32-1.38Z"/>
  </g>
  <g>
    <circle class="cls-3" cx="66.48" cy="66.48" r="66.48"/>
    <g>
      <path class="cls-4" d="m29.05,88.3v-44.17h18.75l-.06,41.2c0,1.64,1.32,2.97,2.96,2.97h34.54v15.63H31.95c-1.64,0-2.96-1.33-2.96-2.96v-12.66h.06Z"/>
      <path class="cls-2" d="m103.92,44.66v44.17h-18.75l.06-41.2c0-1.64-1.32-2.97-2.96-2.97h-34.54v-15.63h53.29c1.64,0,2.96,1.33,2.96,2.96v12.66h-.06Z"/>
    </g>
  </g>
</svg>