<svg width="1807" height="606" viewBox="0 0 1807 606" fill="none" xmlns="http://www.w3.org/2000/svg">
<g clip-path="url(#clip0_448_383)">
<g clip-path="url(#clip1_448_383)">
<path d="M304.946 605.895C472.259 605.895 607.893 470.26 607.893 302.947C607.893 135.634 472.259 0 304.946 0C137.634 0 2 135.634 2 302.947C2 470.26 137.634 605.895 304.946 605.895Z" fill="#662D91"/>
<path d="M277.293 616.331V559.205C277.67 554.492 273.22 545.404 252.406 546.762" stroke="#D2BF94" stroke-width="8" stroke-linecap="round"/>
<path d="M167 546.762H260.89" stroke="#97D0BC" stroke-width="8" stroke-linecap="round"/>
<path d="M243.922 524.138H291.432C295.203 524.515 302.744 527.758 302.744 537.712C302.744 547.667 302.744 592.764 302.744 614.068" stroke="#94D1D2" stroke-width="7" stroke-linecap="round"/>
<path d="M323.673 615.2V511.695C323.296 506.416 316.886 496.763 294.262 500.383" stroke="#CFD6A2" stroke-width="7" stroke-linecap="round"/>
<path d="M196.977 605.019V533.753L213.379 503.776L303.875 499.817" stroke="#94D1D2" stroke-width="7" stroke-linecap="round"/>
<path d="M339.5 471.5L358.17 520.179V607.281" stroke="#CFD6A2" stroke-width="7" stroke-linecap="round"/>
<path d="M362.695 465.315L384.188 526.4" stroke="#CCD59E" stroke-width="7" stroke-linecap="round"/>
<path d="M383.06 601.059L384.191 525.834L375.707 502.079" stroke="#BDA9E8" stroke-width="7" stroke-linecap="round"/>
<path d="M403.99 601.059L405.121 525.834L396.637 502.079" stroke="#CCD59E" stroke-width="7" stroke-linecap="round"/>
<path d="M383.629 465.315L403.991 522.441" stroke="#BDA9E8" stroke-width="7" stroke-linecap="round"/>
<path d="M352.516 385L242.79 402.534C237.511 403.099 227.971 412.828 232.043 447.216" stroke="#BDA9E8" stroke-width="7" stroke-linecap="round"/>
<path d="M355.911 406.493L200.936 430.248C195.846 432.888 187.701 441.221 195.846 453.438" stroke="#92D2D2" stroke-width="7" stroke-linecap="round"/>
<path d="M169.828 519.613L189.624 480.587L264.849 442.691L345.164 425.158C351.952 423.838 367.449 425.497 375.141 442.691" stroke="#CCD59E" stroke-width="7" stroke-linecap="round"/>
</g>
<path opacity="0.6" d="M600.09 303C604.458 303 608.011 299.458 607.897 295.09C606.909 257.133 598.818 219.676 584.021 184.677C568.198 147.249 545.028 113.4 515.894 85.1435C486.759 56.8874 452.254 34.8029 414.435 20.2053C379.086 6.56108 341.517 -0.281484 303.69 0.0088562C299.308 0.042494 295.877 3.72456 296.025 8.10463V8.10463C296.174 12.4861 299.847 15.906 304.23 15.8788C339.934 15.6572 375.388 22.1411 408.754 35.0201C444.592 48.853 477.289 69.7805 504.898 96.5564C532.506 123.332 554.462 155.409 569.457 190.876C583.425 223.913 591.086 259.263 592.071 295.09C592.19 299.458 595.721 303 600.09 303V303Z" fill="#FDC240"/>
<path opacity="0.6" d="M313.167 8.05005C313.289 3.66913 309.837 0.00779027 305.454 0.000420803C267.647 -0.0631525 230.137 6.95107 194.871 20.7051C157.138 35.4209 122.74 57.5532 93.7086 85.7933C64.6776 114.033 41.604 147.808 25.852 185.12C11.1294 219.993 3.0822 257.295 2.10187 295.089C1.98822 299.47 5.55283 303.023 9.93545 303.022V303.022C14.3181 303.021 17.8585 299.466 17.9785 295.085C18.9555 259.413 26.576 224.211 40.4733 191.293C55.4001 155.935 77.2649 123.93 104.775 97.1696C132.285 70.409 164.882 49.4361 200.637 35.4913C233.927 22.5082 269.326 15.8626 305.012 15.8709C309.394 15.8719 313.045 12.431 313.167 8.05005V8.05005Z" fill="white"/>
<path opacity="0.6" d="M551.789 303C556.078 303 559.567 299.522 559.44 295.235C558.496 263.19 551.713 231.578 539.413 202.015C526.12 170.066 506.655 141.161 482.174 117.015C457.693 92.8692 428.695 73.975 396.9 61.4541C367.562 49.9004 336.395 43.9908 304.982 44C300.62 44.0013 297.197 47.6584 297.331 52.0178V52.0178C297.465 56.384 301.117 59.7993 305.485 59.8073C334.812 59.861 363.903 65.4084 391.295 76.1958C421.149 87.9525 448.378 105.694 471.365 128.366C494.352 151.038 512.628 178.179 525.11 208.178C536.598 235.792 542.961 265.308 543.901 295.235C544.035 299.522 547.499 303 551.789 303V303Z" fill="white"/>
<path opacity="0.6" d="M312.959 52.0404C313.096 47.6718 309.668 44.0044 305.298 44.0001C273.86 43.9695 242.664 49.8674 213.298 61.4192C181.47 73.9393 152.441 92.8453 127.937 117.013C103.434 141.18 83.9561 170.115 70.6624 202.098C58.3626 231.689 51.5892 263.33 50.6642 295.401C50.5403 299.698 54.0393 303.181 58.3377 303.178V303.178C62.6359 303.175 66.1051 299.687 66.2372 295.39C67.1585 265.444 73.5114 235.905 84.9981 208.269C97.4787 178.243 115.765 151.077 138.77 128.388C161.775 105.699 189.028 87.949 218.91 76.1946C246.324 65.4108 275.436 59.8751 304.781 59.8409C309.159 59.8358 312.821 56.4159 312.959 52.0404V52.0404Z" fill="#FDC240"/>
<path opacity="0.6" d="M504.97 303.509C508.822 303.509 511.957 300.385 511.832 296.534C510.991 270.696 505.483 245.215 495.562 221.372C484.751 195.386 468.919 171.875 449.007 152.236C429.095 132.597 405.509 117.229 379.649 107.045C355.995 97.7299 330.879 92.9255 305.556 92.8495C301.638 92.8378 298.563 96.1238 298.684 100.039V100.039C298.804 103.961 302.084 107.027 306.008 107.049C329.457 107.18 352.708 111.659 374.614 120.286C398.732 129.783 420.728 144.115 439.298 162.431C457.868 180.747 472.633 202.673 482.716 226.907C491.907 248.999 497.037 272.599 497.873 296.535C498.007 300.385 501.117 303.509 504.97 303.509V303.509Z" fill="#FDC240"/>
<path opacity="0.6" d="M312.545 99.9441C312.688 96.1078 309.697 92.8679 305.858 92.8507C280.425 92.7365 255.167 97.3936 231.358 106.609C205.382 116.663 181.662 131.938 161.611 151.522C141.56 171.106 125.59 194.598 114.652 220.598C104.596 244.501 98.9829 270.074 98.0761 296.021C97.9442 299.794 101.007 302.865 104.783 302.877V302.877C108.559 302.889 111.617 299.836 111.758 296.063C112.654 271.986 117.889 248.26 127.222 226.075C137.438 201.792 152.353 179.852 171.079 161.562C189.806 143.272 211.959 129.006 236.219 119.616C258.307 111.067 281.728 106.718 305.32 106.765C309.166 106.772 312.402 103.788 312.545 99.9441V99.9441Z" fill="white"/>
<path opacity="0.6" d="M461.547 302.804C465.25 302.804 468.267 299.801 468.12 296.1C467.323 276.017 462.952 256.227 455.201 237.699C446.588 217.113 433.979 198.509 418.131 183.001C402.282 167.494 383.52 155.403 362.968 147.453C344.543 140.325 325.019 136.658 305.344 136.609C301.579 136.6 298.649 139.784 298.794 143.547V143.547C298.94 147.316 302.118 150.236 305.89 150.26C323.753 150.375 341.471 153.738 358.203 160.211C377.067 167.508 394.288 178.606 408.836 192.84C423.383 207.074 434.956 224.15 442.861 243.046C449.905 259.883 453.908 277.855 454.697 296.101C454.857 299.801 457.844 302.804 461.547 302.804V302.804Z" fill="#FDC240"/>
<path opacity="0.6" d="M312.154 143.649C312.326 139.856 309.394 136.626 305.597 136.61C285.844 136.53 266.22 140.098 247.685 147.16C227.003 155.04 208.106 167.107 192.138 182.632C176.169 198.156 163.46 216.815 154.78 237.481C146.972 256.072 142.569 275.939 141.77 296.103C141.622 299.835 144.664 302.863 148.399 302.862V302.862C152.134 302.86 155.145 299.83 155.306 296.099C156.098 277.797 160.127 259.77 167.216 242.891C175.178 223.937 186.834 206.823 201.48 192.584C216.126 178.345 233.458 167.277 252.427 160.05C269.242 153.643 287.034 150.372 304.952 150.373C308.757 150.373 311.982 147.45 312.154 143.649V143.649Z" fill="#FDC240"/>
<path opacity="0.6" d="M422.905 302.5C426.271 302.5 429.016 299.77 428.85 296.408C428.126 281.764 424.8 267.349 419.011 253.844C412.421 238.469 402.776 224.593 390.661 213.058C378.546 201.523 364.214 192.57 348.535 186.741C334.762 181.62 320.201 179.005 305.54 179C302.174 178.999 299.581 181.874 299.746 185.236V185.236C299.911 188.598 302.772 191.172 306.138 191.192C319.149 191.266 332.062 193.621 344.287 198.166C358.419 203.42 371.336 211.49 382.255 221.886C393.174 232.283 401.867 244.789 407.807 258.646C412.946 270.634 415.931 283.416 416.643 296.408C416.828 299.769 419.539 302.5 422.905 302.5V302.5Z" fill="#FDC240"/>
<path opacity="0.6" d="M311.388 185.125C311.553 181.828 309.014 179.006 305.712 179C290.99 178.975 276.366 181.582 262.533 186.715C246.831 192.542 232.478 201.502 220.347 213.051C208.216 224.599 198.561 238.494 191.968 253.891C186.161 267.454 182.838 281.933 182.139 296.639C181.982 299.936 184.676 302.611 187.977 302.608V302.608C191.278 302.605 193.935 299.925 194.109 296.628C194.799 283.545 197.789 270.669 202.958 258.596C208.912 244.69 217.633 232.139 228.589 221.709C239.546 211.279 252.51 203.186 266.692 197.923C279.004 193.354 292.012 191 305.113 190.955C308.414 190.943 311.222 188.422 311.388 185.125V185.125Z" fill="white"/>
<path opacity="0.6" d="M379.023 303C382.324 303 385.023 300.32 384.777 297.028C384.097 287.95 381.872 279.039 378.182 270.684C373.687 260.503 367.117 251.373 358.892 243.876C350.667 236.379 340.968 230.68 330.416 227.145C321.756 224.243 312.678 222.851 303.575 223.013C300.275 223.071 297.856 226.007 298.161 229.294V229.294C298.466 232.581 301.38 234.971 304.681 234.955C312.124 234.92 319.535 236.107 326.618 238.48C335.594 241.487 343.843 246.334 350.839 252.711C357.834 259.088 363.423 266.854 367.247 275.513C370.264 282.346 372.13 289.616 372.783 297.03C373.073 300.319 375.722 303 379.023 303V303Z" fill="white"/>
<path opacity="0.6" d="M309.174 228.86C309.332 225.678 306.878 222.948 303.692 223.02C294.813 223.221 286.015 224.899 277.664 227.999C267.506 231.769 258.221 237.563 250.369 245.029C242.518 252.496 236.266 261.479 231.991 271.434C228.476 279.62 226.358 288.322 225.712 297.18C225.48 300.358 228.083 302.946 231.269 302.948V302.948C234.455 302.95 237.015 300.365 237.285 297.19C237.906 289.896 239.695 282.736 242.593 275.987C246.251 267.467 251.602 259.78 258.321 253.39C265.039 247.001 272.986 242.042 281.679 238.816C288.565 236.26 295.806 234.834 303.121 234.579C306.306 234.469 309.017 232.042 309.174 228.86V228.86Z" fill="#FDC240"/>
<path d="M134.29 402.076V200.823H219.732L219.469 388.565C219.469 396.019 225.5 402.076 232.98 402.076H390.354V473.296H147.512C140.058 473.296 134 467.265 134 459.785V402.076H134.29Z" fill="#EF6B56"/>
<path d="M475.482 203.22V404.473H390.039L390.303 216.731C390.303 209.278 384.271 203.22 376.791 203.22H219.418V132H462.26C469.714 132 475.771 138.032 475.771 145.512V203.22H475.482Z" fill="#FAE04D"/>
</g>
<path d="M799.35 242.86C787.31 242.86 775.69 241.04 764.49 237.4C753.43 233.76 743.84 228.65 735.72 222.07L753.57 197.08C766.59 207.3 781.78 212.41 799.14 212.41C807.82 212.41 814.68 210.94 819.72 208C824.9 205.06 827.49 201.07 827.49 196.03C827.49 191.27 825.11 187.56 820.35 184.9C815.59 182.24 808.03 180.35 797.67 179.23C777.65 176.99 762.95 172.3 753.57 165.16C744.33 158.02 739.71 147.8 739.71 134.5C739.71 125.54 742.23 117.63 747.27 110.77C752.31 103.91 759.38 98.59 768.48 94.81C777.58 91.03 788.08 89.14 799.98 89.14C810.2 89.14 820.14 90.61 829.8 93.55C839.6 96.49 848.21 100.62 855.63 105.94L839.46 130.09C827.98 122.11 815.31 118.12 801.45 118.12C792.91 118.12 786.05 119.52 780.87 122.32C775.83 125.12 773.31 128.9 773.31 133.66C773.31 138.28 775.48 141.85 779.82 144.37C784.3 146.89 791.72 148.78 802.08 150.04C821.96 152.28 836.8 157.25 846.6 164.95C856.4 172.51 861.3 182.94 861.3 196.24C861.3 205.48 858.71 213.67 853.53 220.81C848.35 227.81 841.07 233.27 831.69 237.19C822.31 240.97 811.53 242.86 799.35 242.86ZM929.798 133.45C941.138 133.45 950.938 135.62 959.198 139.96C967.458 144.16 973.758 150.18 978.098 158.02C982.578 165.72 984.818 174.75 984.818 185.11C984.818 188.47 984.468 192.6 983.768 197.5H907.538C908.518 202.82 911.388 207.16 916.148 210.52C920.908 213.74 926.998 215.35 934.418 215.35C939.598 215.35 944.638 214.58 949.538 213.04C954.438 211.5 958.638 209.33 962.138 206.53L979.358 225.01C973.478 230.47 966.478 234.67 958.358 237.61C950.378 240.55 941.838 242.02 932.738 242.02C920.698 242.02 910.268 239.85 901.448 235.51C892.628 231.03 885.838 224.73 881.078 216.61C876.318 208.49 873.938 198.9 873.938 187.84C873.938 177.2 876.248 167.75 880.868 159.49C885.628 151.23 892.208 144.86 900.608 140.38C909.008 135.76 918.738 133.45 929.798 133.45ZM930.848 159.49C924.268 159.49 918.878 161.17 914.678 164.53C910.618 167.89 908.308 172.58 907.748 178.6H953.528C953.108 172.58 950.868 167.89 946.808 164.53C942.888 161.17 937.568 159.49 930.848 159.49ZM1068.17 133.66C1077.83 133.66 1086.44 135.97 1094 140.59C1101.56 145.07 1107.44 151.44 1111.64 159.7C1115.84 167.82 1117.94 177.13 1117.94 187.63C1117.94 198.13 1115.84 207.51 1111.64 215.77C1107.44 223.89 1101.56 230.26 1094 234.88C1086.44 239.36 1077.83 241.6 1068.17 241.6C1055.29 241.6 1044.58 237.54 1036.04 229.42V284.44H1003.07V135.76H1031.63L1033.73 147.94C1042.41 138.42 1053.89 133.66 1068.17 133.66ZM1060.4 213.88C1067.68 213.88 1073.63 211.5 1078.25 206.74C1082.87 201.84 1085.18 195.47 1085.18 187.63C1085.18 179.79 1082.87 173.49 1078.25 168.73C1073.63 163.83 1067.68 161.38 1060.4 161.38C1053.12 161.38 1047.17 163.83 1042.55 168.73C1038.07 173.63 1035.83 179.93 1035.83 187.63C1035.83 195.33 1038.07 201.63 1042.55 206.53C1047.17 211.43 1053.12 213.88 1060.4 213.88ZM1201.68 133.66C1211.34 133.66 1219.95 135.97 1227.51 140.59C1235.07 145.07 1240.95 151.44 1245.15 159.7C1249.35 167.82 1251.45 177.13 1251.45 187.63C1251.45 198.13 1249.35 207.51 1245.15 215.77C1240.95 223.89 1235.07 230.26 1227.51 234.88C1219.95 239.36 1211.34 241.6 1201.68 241.6C1188.8 241.6 1178.09 237.54 1169.55 229.42V284.44H1136.58V135.76H1165.14L1167.24 147.94C1175.92 138.42 1187.4 133.66 1201.68 133.66ZM1193.91 213.88C1201.19 213.88 1207.14 211.5 1211.76 206.74C1216.38 201.84 1218.69 195.47 1218.69 187.63C1218.69 179.79 1216.38 173.49 1211.76 168.73C1207.14 163.83 1201.19 161.38 1193.91 161.38C1186.63 161.38 1180.68 163.83 1176.06 168.73C1171.58 173.63 1169.34 179.93 1169.34 187.63C1169.34 195.33 1171.58 201.63 1176.06 206.53C1180.68 211.43 1186.63 213.88 1193.91 213.88ZM1378.86 135.76V239.5H1350.3L1348.2 227.11C1339.38 236.77 1327.9 241.6 1313.76 241.6C1304.1 241.6 1295.49 239.36 1287.93 234.88C1280.51 230.26 1274.7 223.89 1270.5 215.77C1266.3 207.51 1264.2 198.13 1264.2 187.63C1264.2 177.13 1266.3 167.82 1270.5 159.7C1274.7 151.44 1280.51 145.07 1287.93 140.59C1295.49 135.97 1304.1 133.66 1313.76 133.66C1320.76 133.66 1327.2 134.92 1333.08 137.44C1338.96 139.82 1344 143.32 1348.2 147.94L1350.3 135.76H1378.86ZM1321.53 213.88C1328.81 213.88 1334.76 211.5 1339.38 206.74C1344 201.84 1346.31 195.47 1346.31 187.63C1346.31 179.79 1344 173.49 1339.38 168.73C1334.76 163.83 1328.81 161.38 1321.53 161.38C1314.25 161.38 1308.3 163.83 1303.68 168.73C1299.2 173.63 1296.96 179.93 1296.96 187.63C1296.96 195.33 1299.2 201.63 1303.68 206.53C1308.3 211.43 1314.25 213.88 1321.53 213.88ZM1530.01 133.45C1543.17 133.45 1553.53 137.3 1561.09 145C1568.65 152.7 1572.43 163.27 1572.43 176.71V239.5H1539.46V180.91C1539.46 174.75 1537.99 169.99 1535.05 166.63C1532.25 163.13 1528.26 161.38 1523.08 161.38C1517.34 161.38 1512.79 163.34 1509.43 167.26C1506.07 171.18 1504.39 176.36 1504.39 182.8V239.5H1471.63V180.91C1471.63 174.75 1470.23 169.99 1467.43 166.63C1464.63 163.13 1460.64 161.38 1455.46 161.38C1449.72 161.38 1445.1 163.34 1441.6 167.26C1438.24 171.18 1436.56 176.36 1436.56 182.8V239.5H1403.59V135.76H1432.15L1434.04 147.31C1437.68 142.83 1442.02 139.4 1447.06 137.02C1452.24 134.64 1457.77 133.45 1463.65 133.45C1470.37 133.45 1476.39 134.92 1481.71 137.86C1487.03 140.66 1491.23 144.58 1494.31 149.62C1502.71 138.84 1514.61 133.45 1530.01 133.45Z" fill="#EF6B56"/>
<path d="M764.49 237.4L764.177 238.35L764.181 238.351L764.49 237.4ZM735.72 222.07L734.906 221.489L734.359 222.254L735.09 222.847L735.72 222.07ZM753.57 197.08L754.187 196.293L753.364 195.647L752.756 196.499L753.57 197.08ZM819.72 208L819.226 207.13L819.216 207.136L819.72 208ZM820.35 184.9L820.838 184.027L820.838 184.027L820.35 184.9ZM797.67 179.23L797.559 180.224L797.563 180.224L797.67 179.23ZM753.57 165.16L752.959 165.951L752.964 165.956L753.57 165.16ZM747.27 110.77L748.076 111.362L748.076 111.362L747.27 110.77ZM768.48 94.81L768.864 95.7335L768.864 95.7335L768.48 94.81ZM829.8 93.55L829.509 94.5067L829.513 94.5078L829.8 93.55ZM855.63 105.94L856.461 106.496L857 105.692L856.213 105.127L855.63 105.94ZM839.46 130.09L838.889 130.911L839.725 131.492L840.291 130.646L839.46 130.09ZM780.87 122.32L780.394 121.44L780.384 121.446L780.87 122.32ZM779.82 144.37L779.318 145.235L779.33 145.242L779.82 144.37ZM802.08 150.04L801.959 151.033L801.968 151.034L802.08 150.04ZM846.6 164.95L845.982 165.736L845.989 165.742L846.6 164.95ZM853.53 220.81L854.334 221.405L854.339 221.397L853.53 220.81ZM831.69 237.19L832.064 238.118L832.076 238.113L831.69 237.19ZM799.35 241.86C787.413 241.86 775.897 240.056 764.799 236.449L764.181 238.351C775.483 242.024 787.207 243.86 799.35 243.86V241.86ZM764.803 236.45C753.845 232.844 744.365 227.788 736.35 221.293L735.09 222.847C743.315 229.512 753.015 234.676 764.177 238.35L764.803 236.45ZM736.534 222.651L754.384 197.661L752.756 196.499L734.906 221.489L736.534 222.651ZM752.953 197.867C766.158 208.232 781.568 213.41 799.14 213.41V211.41C781.992 211.41 767.022 206.368 754.187 196.293L752.953 197.867ZM799.14 213.41C807.917 213.41 814.974 211.926 820.224 208.864L819.216 207.136C814.386 209.954 807.723 211.41 799.14 211.41V213.41ZM820.214 208.87C825.639 205.79 828.49 201.502 828.49 196.03H826.49C826.49 200.638 824.161 204.33 819.226 207.13L820.214 208.87ZM828.49 196.03C828.49 190.848 825.859 186.833 820.838 184.027L819.862 185.773C824.361 188.287 826.49 191.692 826.49 196.03H828.49ZM820.838 184.027C815.897 181.266 808.172 179.359 797.777 178.236L797.563 180.224C807.888 181.341 815.283 183.214 819.862 185.773L820.838 184.027ZM797.781 178.236C777.829 176.004 763.343 171.342 754.176 164.364L752.964 165.956C762.557 173.258 777.471 177.976 797.559 180.224L797.781 178.236ZM754.181 164.369C745.223 157.446 740.71 147.539 740.71 134.5H738.71C738.71 148.061 743.437 158.594 752.959 165.951L754.181 164.369ZM740.71 134.5C740.71 125.741 743.169 118.041 748.076 111.362L746.464 110.178C741.291 117.219 738.71 125.339 738.71 134.5H740.71ZM748.076 111.362C752.992 104.671 759.905 99.4548 768.864 95.7335L768.096 93.8865C758.855 97.7252 751.628 103.149 746.464 110.178L748.076 111.362ZM768.864 95.7335C777.82 92.0133 788.185 90.14 799.98 90.14V88.14C787.975 88.14 777.34 90.0467 768.096 93.8865L768.864 95.7335ZM799.98 90.14C810.103 90.14 819.944 91.5957 829.509 94.5067L830.091 92.5933C820.336 89.6242 810.297 88.14 799.98 88.14V90.14ZM829.513 94.5078C839.22 97.4199 847.727 101.504 855.047 106.753L856.213 105.127C848.693 99.7357 839.981 95.5601 830.087 92.5922L829.513 94.5078ZM854.799 105.384L838.629 129.534L840.291 130.646L856.461 106.496L854.799 105.384ZM840.031 129.269C828.385 121.174 815.516 117.12 801.45 117.12V119.12C815.104 119.12 827.575 123.046 838.889 130.911L840.031 129.269ZM801.45 117.12C792.814 117.12 785.772 118.534 780.394 121.44L781.346 123.2C786.328 120.506 793.006 119.12 801.45 119.12V117.12ZM780.384 121.446C775.106 124.378 772.31 128.454 772.31 133.66H774.31C774.31 129.346 776.554 125.862 781.356 123.194L780.384 121.446ZM772.31 133.66C772.31 138.672 774.702 142.555 779.318 145.235L780.322 143.505C776.258 141.145 774.31 137.888 774.31 133.66H772.31ZM779.33 145.242C783.99 147.863 791.576 149.77 801.959 151.033L802.201 149.047C791.865 147.79 784.61 145.917 780.31 143.498L779.33 145.242ZM801.968 151.034C821.765 153.264 836.392 158.201 845.982 165.736L847.218 164.164C837.208 156.299 822.155 151.296 802.192 149.046L801.968 151.034ZM845.989 165.742C855.523 173.097 860.3 183.223 860.3 196.24H862.3C862.3 182.657 857.277 171.923 847.211 164.158L845.989 165.742ZM860.3 196.24C860.3 205.28 857.771 213.262 852.721 220.223L854.339 221.397C859.649 214.078 862.3 205.68 862.3 196.24H860.3ZM852.726 220.215C847.67 227.047 840.546 232.405 831.304 236.267L832.076 238.113C841.594 234.135 849.03 228.573 854.334 221.405L852.726 220.215ZM831.316 236.262C822.077 239.986 811.427 241.86 799.35 241.86V243.86C811.633 243.86 822.543 241.954 832.064 238.118L831.316 236.262ZM959.198 139.96L958.733 140.845L958.744 140.851L959.198 139.96ZM978.098 158.02L977.223 158.504L977.228 158.514L977.233 158.523L978.098 158.02ZM983.768 197.5V198.5H984.635L984.758 197.641L983.768 197.5ZM907.538 197.5V196.5H906.337L906.554 197.681L907.538 197.5ZM916.148 210.52L915.571 211.337L915.579 211.343L915.587 211.348L916.148 210.52ZM949.538 213.04L949.838 213.994L949.838 213.994L949.538 213.04ZM962.138 206.53L962.869 205.848L962.237 205.17L961.513 205.749L962.138 206.53ZM979.358 225.01L980.038 225.743L980.772 225.061L980.089 224.328L979.358 225.01ZM958.358 237.61L958.017 236.67L958.012 236.672L958.358 237.61ZM901.448 235.51L900.995 236.402L901.006 236.407L901.448 235.51ZM881.078 216.61L880.215 217.116L881.078 216.61ZM880.868 159.49L880.001 158.991L879.995 159.002L880.868 159.49ZM900.608 140.38L901.078 141.262L901.09 141.256L900.608 140.38ZM914.678 164.53L914.053 163.749L914.047 163.754L914.04 163.76L914.678 164.53ZM907.748 178.6L906.752 178.507L906.65 179.6H907.748V178.6ZM953.528 178.6V179.6H954.6L954.525 178.53L953.528 178.6ZM946.808 164.53L946.157 165.289L946.164 165.295L946.17 165.3L946.808 164.53ZM929.798 134.45C941.01 134.45 950.644 136.595 958.733 140.845L959.663 139.075C951.232 134.645 941.265 132.45 929.798 132.45V134.45ZM958.744 140.851C966.833 144.964 972.983 150.845 977.223 158.504L978.973 157.536C974.532 149.515 968.083 143.356 959.651 139.069L958.744 140.851ZM977.233 158.523C981.611 166.047 983.818 174.898 983.818 185.11H985.818C985.818 174.602 983.545 165.393 978.962 157.517L977.233 158.523ZM983.818 185.11C983.818 188.406 983.474 192.486 982.778 197.359L984.758 197.641C985.462 192.714 985.818 188.534 985.818 185.11H983.818ZM983.768 196.5H907.538V198.5H983.768V196.5ZM906.554 197.681C907.585 203.279 910.616 207.839 915.571 211.337L916.724 209.703C912.16 206.481 909.45 202.361 908.521 197.319L906.554 197.681ZM915.587 211.348C920.555 214.709 926.856 216.35 934.418 216.35V214.35C927.14 214.35 921.261 212.771 916.708 209.692L915.587 211.348ZM934.418 216.35C939.699 216.35 944.84 215.565 949.838 213.994L949.238 212.086C944.436 213.595 939.497 214.35 934.418 214.35V216.35ZM949.838 213.994C954.839 212.422 959.153 210.199 962.762 207.311L961.513 205.749C958.123 208.461 954.037 210.578 949.238 212.086L949.838 213.994ZM961.406 207.212L978.626 225.692L980.089 224.328L962.869 205.848L961.406 207.212ZM978.677 224.277C972.903 229.639 966.021 233.772 958.017 236.67L958.698 238.55C966.935 235.568 974.053 231.301 980.038 225.743L978.677 224.277ZM958.012 236.672C950.15 239.568 941.728 241.02 932.738 241.02V243.02C941.947 243.02 950.605 241.532 958.703 238.548L958.012 236.672ZM932.738 241.02C920.817 241.02 910.544 238.872 901.889 234.613L901.006 236.407C909.991 240.828 920.578 243.02 932.738 243.02V241.02ZM901.901 234.618C893.242 230.22 886.599 224.05 881.94 216.104L880.215 217.116C885.077 225.41 892.013 231.84 900.995 236.402L901.901 234.618ZM881.94 216.104C877.285 208.163 874.938 198.754 874.938 187.84H872.938C872.938 199.046 875.35 208.817 880.215 217.116L881.94 216.104ZM874.938 187.84C874.938 177.349 877.214 168.071 881.74 159.978L879.995 159.002C875.282 167.429 872.938 177.051 872.938 187.84H874.938ZM881.734 159.989C886.401 151.891 892.844 145.654 901.078 141.262L900.137 139.498C891.572 144.066 884.855 150.569 880.001 158.991L881.734 159.989ZM901.09 141.256C909.321 136.729 918.88 134.45 929.798 134.45V132.45C918.595 132.45 908.695 134.791 900.126 139.504L901.09 141.256ZM930.848 158.49C924.093 158.49 918.467 160.218 914.053 163.749L915.302 165.311C919.288 162.122 924.443 160.49 930.848 160.49V158.49ZM914.04 163.76C909.745 167.314 907.333 172.265 906.752 178.507L908.743 178.693C909.283 172.895 911.491 168.466 915.315 165.3L914.04 163.76ZM907.748 179.6H953.528V177.6H907.748V179.6ZM954.525 178.53C954.089 172.281 951.747 167.32 947.445 163.76L946.17 165.3C949.988 168.46 952.126 172.879 952.53 178.67L954.525 178.53ZM947.459 163.771C943.308 160.214 937.733 158.49 930.848 158.49V160.49C937.402 160.49 942.467 162.126 946.157 165.289L947.459 163.771ZM1094 140.59L1093.48 141.443L1093.49 141.45L1094 140.59ZM1111.64 159.7L1110.75 160.153L1110.75 160.159L1111.64 159.7ZM1111.64 215.77L1112.53 216.229L1112.53 216.223L1111.64 215.77ZM1094 234.88L1094.51 235.74L1094.52 235.733L1094 234.88ZM1036.04 229.42L1036.73 228.695L1035.04 227.089V229.42H1036.04ZM1036.04 284.44V285.44H1037.04V284.44H1036.04ZM1003.07 284.44H1002.07V285.44H1003.07V284.44ZM1003.07 135.76V134.76H1002.07V135.76H1003.07ZM1031.63 135.76L1032.62 135.59L1032.47 134.76H1031.63V135.76ZM1033.73 147.94L1032.74 148.11L1033.09 150.124L1034.47 148.614L1033.73 147.94ZM1078.25 206.74L1078.97 207.436L1078.97 207.431L1078.98 207.426L1078.25 206.74ZM1078.25 168.73L1077.52 169.416L1077.53 169.421L1077.53 169.426L1078.25 168.73ZM1042.55 168.73L1041.82 168.044L1041.82 168.05L1041.81 168.055L1042.55 168.73ZM1042.55 206.53L1041.81 207.205L1041.82 207.21L1041.82 207.216L1042.55 206.53ZM1068.17 134.66C1077.66 134.66 1086.09 136.928 1093.48 141.443L1094.52 139.737C1086.79 135.012 1078 132.66 1068.17 132.66V134.66ZM1093.49 141.45C1100.88 145.828 1106.63 152.053 1110.75 160.153L1112.53 159.247C1108.25 150.827 1102.24 144.312 1094.51 139.73L1093.49 141.45ZM1110.75 160.159C1114.87 168.118 1116.94 177.266 1116.94 187.63H1118.94C1118.94 176.994 1116.81 167.522 1112.53 159.241L1110.75 160.159ZM1116.94 187.63C1116.94 197.994 1114.87 207.215 1110.75 215.317L1112.53 216.223C1116.81 207.805 1118.94 198.266 1118.94 187.63H1116.94ZM1110.75 215.311C1106.63 223.274 1100.88 229.505 1093.48 234.027L1094.52 235.733C1102.24 231.015 1108.25 224.506 1112.53 216.229L1110.75 215.311ZM1093.49 234.02C1086.1 238.399 1077.67 240.6 1068.17 240.6V242.6C1077.99 242.6 1086.78 240.321 1094.51 235.74L1093.49 234.02ZM1068.17 240.6C1055.52 240.6 1045.06 236.621 1036.73 228.695L1035.35 230.145C1044.09 238.459 1055.06 242.6 1068.17 242.6V240.6ZM1035.04 229.42V284.44H1037.04V229.42H1035.04ZM1036.04 283.44H1003.07V285.44H1036.04V283.44ZM1004.07 284.44V135.76H1002.07V284.44H1004.07ZM1003.07 136.76H1031.63V134.76H1003.07V136.76ZM1030.64 135.93L1032.74 148.11L1034.72 147.77L1032.62 135.59L1030.64 135.93ZM1034.47 148.614C1042.94 139.325 1054.14 134.66 1068.17 134.66V132.66C1053.64 132.66 1041.88 137.515 1032.99 147.266L1034.47 148.614ZM1060.4 214.88C1067.92 214.88 1074.14 212.41 1078.97 207.436L1077.53 206.044C1073.12 210.59 1067.44 212.88 1060.4 212.88V214.88ZM1078.98 207.426C1083.8 202.31 1086.18 195.68 1086.18 187.63H1084.18C1084.18 195.26 1081.94 201.37 1077.52 206.054L1078.98 207.426ZM1086.18 187.63C1086.18 179.581 1083.8 173.014 1078.97 168.034L1077.53 169.426C1081.94 173.966 1084.18 179.999 1084.18 187.63H1086.18ZM1078.98 168.044C1074.15 162.926 1067.93 160.38 1060.4 160.38V162.38C1067.43 162.38 1073.11 164.734 1077.52 169.416L1078.98 168.044ZM1060.4 160.38C1052.87 160.38 1046.65 162.926 1041.82 168.044L1043.28 169.416C1047.69 164.734 1053.37 162.38 1060.4 162.38V160.38ZM1041.81 168.055C1037.14 173.169 1034.83 179.723 1034.83 187.63H1036.83C1036.83 180.137 1039 174.091 1043.29 169.405L1041.81 168.055ZM1034.83 187.63C1034.83 195.537 1037.14 202.091 1041.81 207.205L1043.29 205.855C1039 201.169 1036.83 195.123 1036.83 187.63H1034.83ZM1041.82 207.216C1046.65 212.334 1052.87 214.88 1060.4 214.88V212.88C1053.37 212.88 1047.69 210.526 1043.28 205.844L1041.82 207.216ZM1227.51 140.59L1226.98 141.443L1227 141.45L1227.51 140.59ZM1245.15 159.7L1244.25 160.153L1244.26 160.159L1245.15 159.7ZM1245.15 215.77L1246.03 216.229L1246.04 216.223L1245.15 215.77ZM1227.51 234.88L1228.02 235.74L1228.03 235.733L1227.51 234.88ZM1169.55 229.42L1170.23 228.695L1168.55 227.089V229.42H1169.55ZM1169.55 284.44V285.44H1170.55V284.44H1169.55ZM1136.58 284.44H1135.58V285.44H1136.58V284.44ZM1136.58 135.76V134.76H1135.58V135.76H1136.58ZM1165.14 135.76L1166.12 135.59L1165.98 134.76H1165.14V135.76ZM1167.24 147.94L1166.25 148.11L1166.6 150.124L1167.97 148.614L1167.24 147.94ZM1211.76 206.74L1212.47 207.436L1212.48 207.431L1212.48 207.426L1211.76 206.74ZM1211.76 168.73L1211.03 169.416L1211.03 169.421L1211.04 169.426L1211.76 168.73ZM1176.06 168.73L1175.33 168.044L1175.32 168.05L1175.32 168.055L1176.06 168.73ZM1176.06 206.53L1175.32 207.205L1175.32 207.21L1175.33 207.216L1176.06 206.53ZM1201.68 134.66C1211.17 134.66 1219.6 136.928 1226.98 141.443L1228.03 139.737C1220.3 135.012 1211.5 132.66 1201.68 132.66V134.66ZM1227 141.45C1234.38 145.828 1240.14 152.053 1244.25 160.153L1246.04 159.247C1241.76 150.827 1235.75 144.312 1228.02 139.73L1227 141.45ZM1244.26 160.159C1248.37 168.118 1250.45 177.266 1250.45 187.63H1252.45C1252.45 176.994 1250.32 167.522 1246.03 159.241L1244.26 160.159ZM1250.45 187.63C1250.45 197.994 1248.37 207.215 1244.25 215.317L1246.04 216.223C1250.32 207.805 1252.45 198.266 1252.45 187.63H1250.45ZM1244.26 215.311C1240.14 223.274 1234.38 229.505 1226.98 234.027L1228.03 235.733C1235.75 231.015 1241.75 224.506 1246.03 216.229L1244.26 215.311ZM1227 234.02C1219.61 238.399 1211.17 240.6 1201.68 240.6V242.6C1211.5 242.6 1220.29 240.321 1228.02 235.74L1227 234.02ZM1201.68 240.6C1189.03 240.6 1178.57 236.621 1170.23 228.695L1168.86 230.145C1177.6 238.459 1188.57 242.6 1201.68 242.6V240.6ZM1168.55 229.42V284.44H1170.55V229.42H1168.55ZM1169.55 283.44H1136.58V285.44H1169.55V283.44ZM1137.58 284.44V135.76H1135.58V284.44H1137.58ZM1136.58 136.76H1165.14V134.76H1136.58V136.76ZM1164.15 135.93L1166.25 148.11L1168.22 147.77L1166.12 135.59L1164.15 135.93ZM1167.97 148.614C1176.44 139.325 1187.64 134.66 1201.68 134.66V132.66C1187.15 132.66 1175.39 137.515 1166.5 147.266L1167.97 148.614ZM1193.91 214.88C1201.43 214.88 1207.65 212.41 1212.47 207.436L1211.04 206.044C1206.63 210.59 1200.94 212.88 1193.91 212.88V214.88ZM1212.48 207.426C1217.31 202.31 1219.69 195.68 1219.69 187.63H1217.69C1217.69 195.26 1215.44 201.37 1211.03 206.054L1212.48 207.426ZM1219.69 187.63C1219.69 179.581 1217.31 173.014 1212.47 168.034L1211.04 169.426C1215.44 173.966 1217.69 179.999 1217.69 187.63H1219.69ZM1212.48 168.044C1207.66 162.926 1201.44 160.38 1193.91 160.38V162.38C1200.93 162.38 1206.61 164.734 1211.03 169.416L1212.48 168.044ZM1193.91 160.38C1186.37 160.38 1180.15 162.926 1175.33 168.044L1176.78 169.416C1181.2 164.734 1186.88 162.38 1193.91 162.38V160.38ZM1175.32 168.055C1170.64 173.169 1168.34 179.723 1168.34 187.63H1170.34C1170.34 180.137 1172.51 174.091 1176.79 169.405L1175.32 168.055ZM1168.34 187.63C1168.34 195.537 1170.64 202.091 1175.32 207.205L1176.79 205.855C1172.51 201.169 1170.34 195.123 1170.34 187.63H1168.34ZM1175.33 207.216C1180.15 212.334 1186.37 214.88 1193.91 214.88V212.88C1186.88 212.88 1181.2 210.526 1176.78 205.844L1175.33 207.216ZM1378.86 135.76H1379.86V134.76H1378.86V135.76ZM1378.86 239.5V240.5H1379.86V239.5H1378.86ZM1350.3 239.5L1349.32 239.667L1349.46 240.5H1350.3V239.5ZM1348.2 227.11L1349.19 226.943L1348.84 224.922L1347.46 226.436L1348.2 227.11ZM1287.93 234.88L1287.4 235.729L1287.41 235.735L1287.42 235.74L1287.93 234.88ZM1270.5 215.77L1269.61 216.223L1269.61 216.229L1270.5 215.77ZM1270.5 159.7L1271.39 160.159L1271.39 160.153L1270.5 159.7ZM1287.93 140.59L1288.45 141.446L1288.45 141.443L1287.93 140.59ZM1333.08 137.44L1332.69 138.359L1332.7 138.363L1332.71 138.367L1333.08 137.44ZM1348.2 147.94L1347.46 148.613L1348.84 150.128L1349.19 148.11L1348.2 147.94ZM1350.3 135.76V134.76H1349.46L1349.32 135.59L1350.3 135.76ZM1339.38 206.74L1340.1 207.436L1340.1 207.431L1340.11 207.426L1339.38 206.74ZM1339.38 168.73L1338.65 169.416L1338.66 169.421L1338.66 169.426L1339.38 168.73ZM1303.68 168.73L1302.95 168.044L1302.95 168.05L1302.94 168.055L1303.68 168.73ZM1303.68 206.53L1302.94 207.205L1302.95 207.21L1302.95 207.216L1303.68 206.53ZM1377.86 135.76V239.5H1379.86V135.76H1377.86ZM1378.86 238.5H1350.3V240.5H1378.86V238.5ZM1351.29 239.333L1349.19 226.943L1347.22 227.277L1349.32 239.667L1351.29 239.333ZM1347.46 226.436C1338.85 235.87 1327.65 240.6 1313.76 240.6V242.6C1328.16 242.6 1339.91 237.67 1348.94 227.784L1347.46 226.436ZM1313.76 240.6C1304.26 240.6 1295.83 238.399 1288.44 234.02L1287.42 235.74C1295.15 240.321 1303.94 242.6 1313.76 242.6V240.6ZM1288.46 234.031C1281.2 229.511 1275.51 223.278 1271.39 215.311L1269.61 216.229C1273.89 224.502 1279.82 231.009 1287.4 235.729L1288.46 234.031ZM1271.39 215.317C1267.27 207.215 1265.2 197.994 1265.2 187.63H1263.2C1263.2 198.266 1265.33 207.805 1269.61 216.223L1271.39 215.317ZM1265.2 187.63C1265.2 177.266 1267.27 168.118 1271.39 160.159L1269.61 159.241C1265.33 167.522 1263.2 176.994 1263.2 187.63H1265.2ZM1271.39 160.153C1275.51 152.048 1281.2 145.823 1288.45 141.446L1287.41 139.734C1279.82 144.317 1273.89 150.832 1269.61 159.247L1271.39 160.153ZM1288.45 141.443C1295.84 136.928 1304.27 134.66 1313.76 134.66V132.66C1303.93 132.66 1295.14 135.012 1287.41 139.737L1288.45 141.443ZM1313.76 134.66C1320.64 134.66 1326.94 135.897 1332.69 138.359L1333.48 136.521C1327.46 133.943 1320.88 132.66 1313.76 132.66V134.66ZM1332.71 138.367C1338.45 140.692 1343.36 144.106 1347.46 148.613L1348.94 147.267C1344.64 142.534 1339.47 138.948 1333.46 136.513L1332.71 138.367ZM1349.19 148.11L1351.29 135.93L1349.32 135.59L1347.22 147.77L1349.19 148.11ZM1350.3 136.76H1378.86V134.76H1350.3V136.76ZM1321.53 214.88C1329.05 214.88 1335.27 212.41 1340.1 207.436L1338.66 206.044C1334.25 210.59 1328.57 212.88 1321.53 212.88V214.88ZM1340.11 207.426C1344.93 202.31 1347.31 195.68 1347.31 187.63H1345.31C1345.31 195.26 1343.07 201.37 1338.65 206.054L1340.11 207.426ZM1347.31 187.63C1347.31 179.581 1344.93 173.014 1340.1 168.034L1338.66 169.426C1343.07 173.966 1345.31 179.999 1345.31 187.63H1347.31ZM1340.11 168.044C1335.28 162.926 1329.06 160.38 1321.53 160.38V162.38C1328.56 162.38 1334.24 164.734 1338.65 169.416L1340.11 168.044ZM1321.53 160.38C1314 160.38 1307.78 162.926 1302.95 168.044L1304.41 169.416C1308.82 164.734 1314.5 162.38 1321.53 162.38V160.38ZM1302.94 168.055C1298.27 173.169 1295.96 179.723 1295.96 187.63H1297.96C1297.96 180.137 1300.13 174.091 1304.42 169.405L1302.94 168.055ZM1295.96 187.63C1295.96 195.537 1298.27 202.091 1302.94 207.205L1304.42 205.855C1300.13 201.169 1297.96 195.123 1297.96 187.63H1295.96ZM1302.95 207.216C1307.78 212.334 1314 214.88 1321.53 214.88V212.88C1314.5 212.88 1308.82 210.526 1304.41 205.844L1302.95 207.216ZM1561.09 145L1560.37 145.701L1560.37 145.701L1561.09 145ZM1572.43 239.5V240.5H1573.43V239.5H1572.43ZM1539.46 239.5H1538.46V240.5H1539.46V239.5ZM1535.05 166.63L1534.27 167.255L1534.28 167.272L1534.29 167.289L1535.05 166.63ZM1504.39 239.5V240.5H1505.39V239.5H1504.39ZM1471.63 239.5H1470.63V240.5H1471.63V239.5ZM1467.43 166.63L1466.65 167.255L1466.65 167.263L1466.66 167.27L1467.43 166.63ZM1441.6 167.26L1440.85 166.594L1440.84 166.602L1440.84 166.609L1441.6 167.26ZM1436.56 239.5V240.5H1437.56V239.5H1436.56ZM1403.59 239.5H1402.59V240.5H1403.59V239.5ZM1403.59 135.76V134.76H1402.59V135.76H1403.59ZM1432.15 135.76L1433.13 135.599L1433 134.76H1432.15V135.76ZM1434.04 147.31L1433.05 147.471L1433.41 149.668L1434.81 147.941L1434.04 147.31ZM1447.06 137.02L1446.64 136.111L1446.63 136.116L1447.06 137.02ZM1481.71 137.86L1481.22 138.735L1481.23 138.74L1481.24 138.745L1481.71 137.86ZM1494.31 149.62L1493.45 150.141L1494.21 151.375L1495.1 150.235L1494.31 149.62ZM1530.01 134.45C1542.96 134.45 1553.04 138.233 1560.37 145.701L1561.8 144.299C1554.01 136.367 1543.37 132.45 1530.01 132.45V134.45ZM1560.37 145.701C1567.71 153.17 1571.43 163.464 1571.43 176.71H1573.43C1573.43 163.076 1569.59 152.23 1561.8 144.299L1560.37 145.701ZM1571.43 176.71V239.5H1573.43V176.71H1571.43ZM1572.43 238.5H1539.46V240.5H1572.43V238.5ZM1540.46 239.5V180.91H1538.46V239.5H1540.46ZM1540.46 180.91C1540.46 174.6 1538.95 169.573 1535.8 165.971L1534.29 167.289C1537.02 170.407 1538.46 174.9 1538.46 180.91H1540.46ZM1535.83 166.005C1532.81 162.229 1528.51 160.38 1523.08 160.38V162.38C1528.01 162.38 1531.69 164.031 1534.27 167.255L1535.83 166.005ZM1523.08 160.38C1517.08 160.38 1512.24 162.441 1508.67 166.609L1510.19 167.911C1513.33 164.239 1517.59 162.38 1523.08 162.38V160.38ZM1508.67 166.609C1505.12 170.752 1503.39 176.182 1503.39 182.8H1505.39C1505.39 176.538 1507.02 171.608 1510.19 167.911L1508.67 166.609ZM1503.39 182.8V239.5H1505.39V182.8H1503.39ZM1504.39 238.5H1471.63V240.5H1504.39V238.5ZM1472.63 239.5V180.91H1470.63V239.5H1472.63ZM1472.63 180.91C1472.63 174.61 1471.2 169.591 1468.2 165.99L1466.66 167.27C1469.26 170.389 1470.63 174.89 1470.63 180.91H1472.63ZM1468.21 166.005C1465.19 162.229 1460.89 160.38 1455.46 160.38V162.38C1460.39 162.38 1464.07 164.031 1466.65 167.255L1468.21 166.005ZM1455.46 160.38C1449.46 160.38 1444.56 162.44 1440.85 166.594L1442.34 167.926C1445.63 164.24 1449.97 162.38 1455.46 162.38V160.38ZM1440.84 166.609C1437.29 170.752 1435.56 176.182 1435.56 182.8H1437.56C1437.56 176.538 1439.19 171.608 1442.36 167.911L1440.84 166.609ZM1435.56 182.8V239.5H1437.56V182.8H1435.56ZM1436.56 238.5H1403.59V240.5H1436.56V238.5ZM1404.59 239.5V135.76H1402.59V239.5H1404.59ZM1403.59 136.76H1432.15V134.76H1403.59V136.76ZM1431.16 135.921L1433.05 147.471L1435.02 147.149L1433.13 135.599L1431.16 135.921ZM1434.81 147.941C1438.36 143.573 1442.58 140.238 1447.48 137.924L1446.63 136.116C1441.45 138.562 1436.99 142.087 1433.26 146.679L1434.81 147.941ZM1447.47 137.929C1452.52 135.611 1457.91 134.45 1463.65 134.45V132.45C1457.63 132.45 1451.95 133.669 1446.64 136.111L1447.47 137.929ZM1463.65 134.45C1470.22 134.45 1476.07 135.885 1481.22 138.735L1482.19 136.985C1476.71 133.955 1470.52 132.45 1463.65 132.45V134.45ZM1481.24 138.745C1486.4 141.462 1490.47 145.258 1493.45 150.141L1495.16 149.099C1491.98 143.902 1487.65 139.857 1482.17 136.975L1481.24 138.745ZM1495.1 150.235C1503.28 139.731 1514.87 134.45 1530.01 134.45V132.45C1514.34 132.45 1502.13 137.949 1493.52 149.005L1495.1 150.235Z" fill="#EF6B56"/>
<path d="M799.35 516.86C787.31 516.86 775.69 515.04 764.49 511.4C753.43 507.76 743.84 502.65 735.72 496.07L753.57 471.08C766.59 481.3 781.78 486.41 799.14 486.41C807.82 486.41 814.68 484.94 819.72 482C824.9 479.06 827.49 475.07 827.49 470.03C827.49 465.27 825.11 461.56 820.35 458.9C815.59 456.24 808.03 454.35 797.67 453.23C777.65 450.99 762.95 446.3 753.57 439.16C744.33 432.02 739.71 421.8 739.71 408.5C739.71 399.54 742.23 391.63 747.27 384.77C752.31 377.91 759.38 372.59 768.48 368.81C777.58 365.03 788.08 363.14 799.98 363.14C810.2 363.14 820.14 364.61 829.8 367.55C839.6 370.49 848.21 374.62 855.63 379.94L839.46 404.09C827.98 396.11 815.31 392.12 801.45 392.12C792.91 392.12 786.05 393.52 780.87 396.32C775.83 399.12 773.31 402.9 773.31 407.66C773.31 412.28 775.48 415.85 779.82 418.37C784.3 420.89 791.72 422.78 802.08 424.04C821.96 426.28 836.8 431.25 846.6 438.95C856.4 446.51 861.3 456.94 861.3 470.24C861.3 479.48 858.71 487.67 853.53 494.81C848.35 501.81 841.07 507.27 831.69 511.19C822.31 514.97 811.53 516.86 799.35 516.86ZM929.798 407.45C941.138 407.45 950.938 409.62 959.198 413.96C967.458 418.16 973.758 424.18 978.098 432.02C982.578 439.72 984.818 448.75 984.818 459.11C984.818 462.47 984.468 466.6 983.768 471.5H907.538C908.518 476.82 911.388 481.16 916.148 484.52C920.908 487.74 926.998 489.35 934.418 489.35C939.598 489.35 944.638 488.58 949.538 487.04C954.438 485.5 958.638 483.33 962.138 480.53L979.358 499.01C973.478 504.47 966.478 508.67 958.358 511.61C950.378 514.55 941.838 516.02 932.738 516.02C920.698 516.02 910.268 513.85 901.448 509.51C892.628 505.03 885.838 498.73 881.078 490.61C876.318 482.49 873.938 472.9 873.938 461.84C873.938 451.2 876.248 441.75 880.868 433.49C885.628 425.23 892.208 418.86 900.608 414.38C909.008 409.76 918.738 407.45 929.798 407.45ZM930.848 433.49C924.268 433.49 918.878 435.17 914.678 438.53C910.618 441.89 908.308 446.58 907.748 452.6H953.528C953.108 446.58 950.868 441.89 946.808 438.53C942.888 435.17 937.568 433.49 930.848 433.49ZM1129.49 407.45C1142.65 407.45 1153.01 411.3 1160.57 419C1168.13 426.7 1171.91 437.27 1171.91 450.71V513.5H1138.94V454.91C1138.94 448.75 1137.47 443.99 1134.53 440.63C1131.73 437.13 1127.74 435.38 1122.56 435.38C1116.82 435.38 1112.27 437.34 1108.91 441.26C1105.55 445.18 1103.87 450.36 1103.87 456.8V513.5H1071.11V454.91C1071.11 448.75 1069.71 443.99 1066.91 440.63C1064.11 437.13 1060.12 435.38 1054.94 435.38C1049.2 435.38 1044.58 437.34 1041.08 441.26C1037.72 445.18 1036.04 450.36 1036.04 456.8V513.5H1003.07V409.76H1031.63L1033.52 421.31C1037.16 416.83 1041.5 413.4 1046.54 411.02C1051.72 408.64 1057.25 407.45 1063.13 407.45C1069.85 407.45 1075.87 408.92 1081.19 411.86C1086.51 414.66 1090.71 418.58 1093.79 423.62C1102.19 412.84 1114.09 407.45 1129.49 407.45ZM1304.21 409.76V513.5H1275.65L1273.55 501.11C1264.73 510.77 1253.25 515.6 1239.11 515.6C1229.45 515.6 1220.84 513.36 1213.28 508.88C1205.86 504.26 1200.05 497.89 1195.85 489.77C1191.65 481.51 1189.55 472.13 1189.55 461.63C1189.55 451.13 1191.65 441.82 1195.85 433.7C1200.05 425.44 1205.86 419.07 1213.28 414.59C1220.84 409.97 1229.45 407.66 1239.11 407.66C1246.11 407.66 1252.55 408.92 1258.43 411.44C1264.31 413.82 1269.35 417.32 1273.55 421.94L1275.65 409.76H1304.21ZM1246.88 487.88C1254.16 487.88 1260.11 485.5 1264.73 480.74C1269.35 475.84 1271.66 469.47 1271.66 461.63C1271.66 453.79 1269.35 447.49 1264.73 442.73C1260.11 437.83 1254.16 435.38 1246.88 435.38C1239.6 435.38 1233.65 437.83 1229.03 442.73C1224.55 447.63 1222.31 453.93 1222.31 461.63C1222.31 469.33 1224.55 475.63 1229.03 480.53C1233.65 485.43 1239.6 487.88 1246.88 487.88ZM1392.99 407.45C1405.87 407.45 1416.09 411.65 1423.65 420.05C1431.35 428.45 1435.2 440.07 1435.2 454.91V513.5H1402.23V456.8C1402.23 450.08 1400.55 444.83 1397.19 441.05C1393.83 437.27 1389.21 435.38 1383.33 435.38C1376.89 435.38 1371.71 437.55 1367.79 441.89C1363.87 446.23 1361.91 451.9 1361.91 458.9V513.5H1328.94V409.76H1357.5L1359.6 421.94C1363.66 417.32 1368.49 413.75 1374.09 411.23C1379.83 408.71 1386.13 407.45 1392.99 407.45ZM1532.48 509.51C1524.36 513.57 1515.19 515.6 1504.97 515.6C1493.63 515.6 1484.67 512.45 1478.09 506.15C1471.51 499.71 1468.22 489.42 1468.22 475.28V436.01H1450.58V409.76H1468.22V383.93L1500.98 380.36V409.76H1526.81V436.01H1500.98V475.28C1500.98 479.48 1502.03 482.63 1504.13 484.73C1506.23 486.69 1509.1 487.67 1512.74 487.67C1516.8 487.67 1520.79 486.69 1524.71 484.73L1532.48 509.51ZM1563.73 399.47C1557.99 399.47 1553.3 397.79 1549.66 394.43C1546.16 391.07 1544.41 386.8 1544.41 381.62C1544.41 376.3 1546.23 371.96 1549.87 368.6C1553.51 365.24 1558.13 363.56 1563.73 363.56C1569.33 363.56 1573.95 365.24 1577.59 368.6C1581.23 371.96 1583.05 376.3 1583.05 381.62C1583.05 386.8 1581.23 391.07 1577.59 394.43C1574.09 397.79 1569.47 399.47 1563.73 399.47ZM1547.14 409.76H1580.11V513.5H1547.14V409.76ZM1656.42 515.81C1644.8 515.81 1634.65 513.64 1625.97 509.3C1617.43 504.82 1610.78 498.52 1606.02 490.4C1601.4 482.28 1599.09 472.76 1599.09 461.84C1599.09 451.06 1601.47 441.61 1606.23 433.49C1610.99 425.23 1617.64 418.86 1626.18 414.38C1634.72 409.76 1644.59 407.45 1655.79 407.45C1663.49 407.45 1670.84 408.85 1677.84 411.65C1684.84 414.31 1691.07 418.3 1696.53 423.62L1678.26 443.57C1672.38 438.11 1665.45 435.38 1657.47 435.38C1649.91 435.38 1643.75 437.83 1638.99 442.73C1634.23 447.49 1631.85 453.79 1631.85 461.63C1631.85 469.47 1634.16 475.84 1638.78 480.74C1643.54 485.5 1649.77 487.88 1657.47 487.88C1666.01 487.88 1673.29 484.87 1679.31 478.85L1698 498.59C1686.38 510.07 1672.52 515.81 1656.42 515.81ZM1753.17 516.23C1734.83 516.23 1718.87 511.61 1705.29 502.37L1717.89 479.69C1722.93 482.77 1728.74 485.15 1735.32 486.83C1742.04 488.51 1748.69 489.35 1755.27 489.35C1764.37 489.35 1768.92 486.9 1768.92 482C1768.92 479.48 1767.66 477.59 1765.14 476.33C1762.62 475.07 1758.42 474.23 1752.54 473.81C1739.38 473.11 1728.88 469.82 1721.04 463.94C1713.34 458.06 1709.49 450.36 1709.49 440.84C1709.49 430.48 1713.69 422.29 1722.09 416.27C1730.49 410.11 1741.83 407.03 1756.11 407.03C1764.23 407.03 1771.93 408.01 1779.21 409.97C1786.63 411.93 1793 414.66 1798.32 418.16L1785.51 440.21C1777.67 435.73 1768.36 433.49 1757.58 433.49C1746.94 433.49 1741.62 436.01 1741.62 441.05C1741.62 443.15 1742.67 444.76 1744.77 445.88C1747.01 447 1750.72 447.84 1755.9 448.4C1770.74 449.52 1782.01 452.88 1789.71 458.48C1797.55 464.08 1801.47 471.92 1801.47 482C1801.47 492.64 1797.2 501.04 1788.66 507.2C1780.12 513.22 1768.29 516.23 1753.17 516.23Z" fill="#FAE04D"/>
<path d="M764.49 511.4L764.177 512.35L764.181 512.351L764.49 511.4ZM735.72 496.07L734.906 495.489L734.359 496.254L735.09 496.847L735.72 496.07ZM753.57 471.08L754.187 470.293L753.364 469.647L752.756 470.499L753.57 471.08ZM819.72 482L819.226 481.13L819.216 481.136L819.72 482ZM820.35 458.9L820.838 458.027L820.838 458.027L820.35 458.9ZM797.67 453.23L797.559 454.224L797.563 454.224L797.67 453.23ZM753.57 439.16L752.959 439.951L752.964 439.956L753.57 439.16ZM747.27 384.77L748.076 385.362L748.076 385.362L747.27 384.77ZM768.48 368.81L768.864 369.733L768.864 369.733L768.48 368.81ZM829.8 367.55L829.509 368.507L829.513 368.508L829.8 367.55ZM855.63 379.94L856.461 380.496L857 379.692L856.213 379.127L855.63 379.94ZM839.46 404.09L838.889 404.911L839.725 405.492L840.291 404.646L839.46 404.09ZM780.87 396.32L780.394 395.44L780.384 395.446L780.87 396.32ZM779.82 418.37L779.318 419.235L779.33 419.242L779.82 418.37ZM802.08 424.04L801.959 425.033L801.968 425.034L802.08 424.04ZM846.6 438.95L845.982 439.736L845.989 439.742L846.6 438.95ZM853.53 494.81L854.334 495.405L854.339 495.397L853.53 494.81ZM831.69 511.19L832.064 512.118L832.076 512.113L831.69 511.19ZM799.35 515.86C787.413 515.86 775.897 514.056 764.799 510.449L764.181 512.351C775.483 516.024 787.207 517.86 799.35 517.86V515.86ZM764.803 510.45C753.845 506.844 744.365 501.788 736.35 495.293L735.09 496.847C743.315 503.512 753.015 508.676 764.177 512.35L764.803 510.45ZM736.534 496.651L754.384 471.661L752.756 470.499L734.906 495.489L736.534 496.651ZM752.953 471.867C766.158 482.232 781.568 487.41 799.14 487.41V485.41C781.992 485.41 767.022 480.368 754.187 470.293L752.953 471.867ZM799.14 487.41C807.917 487.41 814.974 485.926 820.224 482.864L819.216 481.136C814.386 483.954 807.723 485.41 799.14 485.41V487.41ZM820.214 482.87C825.639 479.79 828.49 475.502 828.49 470.03H826.49C826.49 474.638 824.161 478.33 819.226 481.13L820.214 482.87ZM828.49 470.03C828.49 464.848 825.859 460.833 820.838 458.027L819.862 459.773C824.361 462.287 826.49 465.692 826.49 470.03H828.49ZM820.838 458.027C815.897 455.266 808.172 453.359 797.777 452.236L797.563 454.224C807.888 455.341 815.283 457.214 819.862 459.773L820.838 458.027ZM797.781 452.236C777.829 450.004 763.343 445.342 754.176 438.364L752.964 439.956C762.557 447.258 777.471 451.976 797.559 454.224L797.781 452.236ZM754.181 438.369C745.223 431.446 740.71 421.539 740.71 408.5H738.71C738.71 422.061 743.437 432.594 752.959 439.951L754.181 438.369ZM740.71 408.5C740.71 399.741 743.169 392.041 748.076 385.362L746.464 384.178C741.291 391.219 738.71 399.339 738.71 408.5H740.71ZM748.076 385.362C752.992 378.671 759.905 373.455 768.864 369.733L768.096 367.887C758.855 371.725 751.628 377.149 746.464 384.178L748.076 385.362ZM768.864 369.733C777.82 366.013 788.185 364.14 799.98 364.14V362.14C787.975 362.14 777.34 364.047 768.096 367.887L768.864 369.733ZM799.98 364.14C810.103 364.14 819.944 365.596 829.509 368.507L830.091 366.593C820.336 363.624 810.297 362.14 799.98 362.14V364.14ZM829.513 368.508C839.22 371.42 847.727 375.504 855.047 380.753L856.213 379.127C848.693 373.736 839.981 369.56 830.087 366.592L829.513 368.508ZM854.799 379.384L838.629 403.534L840.291 404.646L856.461 380.496L854.799 379.384ZM840.031 403.269C828.385 395.174 815.516 391.12 801.45 391.12V393.12C815.104 393.12 827.575 397.046 838.889 404.911L840.031 403.269ZM801.45 391.12C792.814 391.12 785.772 392.534 780.394 395.44L781.346 397.2C786.328 394.506 793.006 393.12 801.45 393.12V391.12ZM780.384 395.446C775.106 398.378 772.31 402.454 772.31 407.66H774.31C774.31 403.346 776.554 399.862 781.356 397.194L780.384 395.446ZM772.31 407.66C772.31 412.672 774.702 416.555 779.318 419.235L780.322 417.505C776.258 415.145 774.31 411.888 774.31 407.66H772.31ZM779.33 419.242C783.99 421.863 791.576 423.77 801.959 425.033L802.201 423.047C791.865 421.79 784.61 419.917 780.31 417.498L779.33 419.242ZM801.968 425.034C821.765 427.264 836.392 432.201 845.982 439.736L847.218 438.164C837.208 430.299 822.155 425.296 802.192 423.046L801.968 425.034ZM845.989 439.742C855.523 447.097 860.3 457.223 860.3 470.24H862.3C862.3 456.657 857.277 445.923 847.211 438.158L845.989 439.742ZM860.3 470.24C860.3 479.28 857.771 487.262 852.721 494.223L854.339 495.397C859.649 488.078 862.3 479.68 862.3 470.24H860.3ZM852.726 494.215C847.67 501.047 840.546 506.405 831.304 510.267L832.076 512.113C841.594 508.135 849.03 502.573 854.334 495.405L852.726 494.215ZM831.316 510.262C822.077 513.986 811.427 515.86 799.35 515.86V517.86C811.633 517.86 822.543 515.954 832.064 512.118L831.316 510.262ZM959.198 413.96L958.733 414.845L958.744 414.851L959.198 413.96ZM978.098 432.02L977.223 432.504L977.228 432.514L977.233 432.523L978.098 432.02ZM983.768 471.5V472.5H984.635L984.758 471.641L983.768 471.5ZM907.538 471.5V470.5H906.337L906.554 471.681L907.538 471.5ZM916.148 484.52L915.571 485.337L915.579 485.343L915.587 485.348L916.148 484.52ZM949.538 487.04L949.838 487.994L949.838 487.994L949.538 487.04ZM962.138 480.53L962.869 479.848L962.237 479.17L961.513 479.749L962.138 480.53ZM979.358 499.01L980.038 499.743L980.772 499.061L980.089 498.328L979.358 499.01ZM958.358 511.61L958.017 510.67L958.012 510.672L958.358 511.61ZM901.448 509.51L900.995 510.402L901.006 510.407L901.448 509.51ZM881.078 490.61L880.215 491.116L881.078 490.61ZM880.868 433.49L880.001 432.991L879.995 433.002L880.868 433.49ZM900.608 414.38L901.078 415.262L901.09 415.256L900.608 414.38ZM914.678 438.53L914.053 437.749L914.047 437.754L914.04 437.76L914.678 438.53ZM907.748 452.6L906.752 452.507L906.65 453.6H907.748V452.6ZM953.528 452.6V453.6H954.6L954.525 452.53L953.528 452.6ZM946.808 438.53L946.157 439.289L946.164 439.295L946.17 439.3L946.808 438.53ZM929.798 408.45C941.01 408.45 950.644 410.595 958.733 414.845L959.663 413.075C951.232 408.645 941.265 406.45 929.798 406.45V408.45ZM958.744 414.851C966.833 418.964 972.983 424.845 977.223 432.504L978.973 431.536C974.532 423.515 968.083 417.356 959.651 413.069L958.744 414.851ZM977.233 432.523C981.611 440.047 983.818 448.898 983.818 459.11H985.818C985.818 448.602 983.545 439.393 978.962 431.517L977.233 432.523ZM983.818 459.11C983.818 462.406 983.474 466.486 982.778 471.359L984.758 471.641C985.462 466.714 985.818 462.534 985.818 459.11H983.818ZM983.768 470.5H907.538V472.5H983.768V470.5ZM906.554 471.681C907.585 477.279 910.616 481.839 915.571 485.337L916.724 483.703C912.16 480.481 909.45 476.361 908.521 471.319L906.554 471.681ZM915.587 485.348C920.555 488.709 926.856 490.35 934.418 490.35V488.35C927.14 488.35 921.261 486.771 916.708 483.692L915.587 485.348ZM934.418 490.35C939.699 490.35 944.84 489.565 949.838 487.994L949.238 486.086C944.436 487.595 939.497 488.35 934.418 488.35V490.35ZM949.838 487.994C954.839 486.422 959.153 484.199 962.762 481.311L961.513 479.749C958.123 482.461 954.037 484.578 949.238 486.086L949.838 487.994ZM961.406 481.212L978.626 499.692L980.089 498.328L962.869 479.848L961.406 481.212ZM978.677 498.277C972.903 503.639 966.021 507.772 958.017 510.67L958.698 512.55C966.935 509.568 974.053 505.301 980.038 499.743L978.677 498.277ZM958.012 510.672C950.15 513.568 941.728 515.02 932.738 515.02V517.02C941.947 517.02 950.605 515.532 958.703 512.548L958.012 510.672ZM932.738 515.02C920.817 515.02 910.544 512.872 901.889 508.613L901.006 510.407C909.991 514.828 920.578 517.02 932.738 517.02V515.02ZM901.901 508.618C893.242 504.22 886.599 498.05 881.94 490.104L880.215 491.116C885.077 499.41 892.013 505.84 900.995 510.402L901.901 508.618ZM881.94 490.104C877.285 482.163 874.938 472.754 874.938 461.84H872.938C872.938 473.046 875.35 482.817 880.215 491.116L881.94 490.104ZM874.938 461.84C874.938 451.349 877.214 442.071 881.74 433.978L879.995 433.002C875.282 441.429 872.938 451.051 872.938 461.84H874.938ZM881.734 433.989C886.401 425.891 892.844 419.654 901.078 415.262L900.137 413.498C891.572 418.066 884.855 424.569 880.001 432.991L881.734 433.989ZM901.09 415.256C909.321 410.729 918.88 408.45 929.798 408.45V406.45C918.595 406.45 908.695 408.791 900.126 413.504L901.09 415.256ZM930.848 432.49C924.093 432.49 918.467 434.218 914.053 437.749L915.302 439.311C919.288 436.122 924.443 434.49 930.848 434.49V432.49ZM914.04 437.76C909.745 441.314 907.333 446.265 906.752 452.507L908.743 452.693C909.283 446.895 911.491 442.466 915.315 439.3L914.04 437.76ZM907.748 453.6H953.528V451.6H907.748V453.6ZM954.525 452.53C954.089 446.281 951.747 441.32 947.445 437.76L946.17 439.3C949.988 442.46 952.126 446.879 952.53 452.67L954.525 452.53ZM947.459 437.771C943.308 434.214 937.733 432.49 930.848 432.49V434.49C937.402 434.49 942.467 436.126 946.157 439.289L947.459 437.771ZM1160.57 419L1159.86 419.701L1159.86 419.701L1160.57 419ZM1171.91 513.5V514.5H1172.91V513.5H1171.91ZM1138.94 513.5H1137.94V514.5H1138.94V513.5ZM1134.53 440.63L1133.75 441.255L1133.76 441.272L1133.78 441.289L1134.53 440.63ZM1103.87 513.5V514.5H1104.87V513.5H1103.87ZM1071.11 513.5H1070.11V514.5H1071.11V513.5ZM1066.91 440.63L1066.13 441.255L1066.14 441.263L1066.14 441.27L1066.91 440.63ZM1041.08 441.26L1040.33 440.594L1040.33 440.602L1040.32 440.609L1041.08 441.26ZM1036.04 513.5V514.5H1037.04V513.5H1036.04ZM1003.07 513.5H1002.07V514.5H1003.07V513.5ZM1003.07 409.76V408.76H1002.07V409.76H1003.07ZM1031.63 409.76L1032.62 409.599L1032.48 408.76H1031.63V409.76ZM1033.52 421.31L1032.53 421.471L1032.89 423.668L1034.3 421.941L1033.52 421.31ZM1046.54 411.02L1046.12 410.111L1046.11 410.116L1046.54 411.02ZM1081.19 411.86L1080.71 412.735L1080.71 412.74L1080.72 412.745L1081.19 411.86ZM1093.79 423.62L1092.94 424.141L1093.69 425.375L1094.58 424.235L1093.79 423.62ZM1129.49 408.45C1142.44 408.45 1152.52 412.233 1159.86 419.701L1161.28 418.299C1153.5 410.367 1142.86 406.45 1129.49 406.45V408.45ZM1159.86 419.701C1167.19 427.17 1170.91 437.464 1170.91 450.71H1172.91C1172.91 437.076 1169.07 426.23 1161.28 418.299L1159.86 419.701ZM1170.91 450.71V513.5H1172.91V450.71H1170.91ZM1171.91 512.5H1138.94V514.5H1171.91V512.5ZM1139.94 513.5V454.91H1137.94V513.5H1139.94ZM1139.94 454.91C1139.94 448.6 1138.43 443.573 1135.28 439.971L1133.78 441.289C1136.51 444.407 1137.94 448.9 1137.94 454.91H1139.94ZM1135.31 440.005C1132.29 436.229 1127.99 434.38 1122.56 434.38V436.38C1127.49 436.38 1131.17 438.031 1133.75 441.255L1135.31 440.005ZM1122.56 434.38C1116.56 434.38 1111.72 436.441 1108.15 440.609L1109.67 441.911C1112.82 438.239 1117.07 436.38 1122.56 436.38V434.38ZM1108.15 440.609C1104.6 444.752 1102.87 450.182 1102.87 456.8H1104.87C1104.87 450.538 1106.5 445.608 1109.67 441.911L1108.15 440.609ZM1102.87 456.8V513.5H1104.87V456.8H1102.87ZM1103.87 512.5H1071.11V514.5H1103.87V512.5ZM1072.11 513.5V454.91H1070.11V513.5H1072.11ZM1072.11 454.91C1072.11 448.61 1070.68 443.591 1067.68 439.99L1066.14 441.27C1068.74 444.389 1070.11 448.89 1070.11 454.91H1072.11ZM1067.69 440.005C1064.67 436.229 1060.37 434.38 1054.94 434.38V436.38C1059.87 436.38 1063.55 438.031 1066.13 441.255L1067.69 440.005ZM1054.94 434.38C1048.94 434.38 1044.04 436.44 1040.33 440.594L1041.83 441.926C1045.12 438.24 1049.46 436.38 1054.94 436.38V434.38ZM1040.32 440.609C1036.77 444.752 1035.04 450.182 1035.04 456.8H1037.04C1037.04 450.538 1038.67 445.608 1041.84 441.911L1040.32 440.609ZM1035.04 456.8V513.5H1037.04V456.8H1035.04ZM1036.04 512.5H1003.07V514.5H1036.04V512.5ZM1004.07 513.5V409.76H1002.07V513.5H1004.07ZM1003.07 410.76H1031.63V408.76H1003.07V410.76ZM1030.64 409.921L1032.53 421.471L1034.51 421.149L1032.62 409.599L1030.64 409.921ZM1034.3 421.941C1037.84 417.573 1042.07 414.238 1046.97 411.924L1046.11 410.116C1040.93 412.562 1036.47 416.087 1032.74 420.679L1034.3 421.941ZM1046.96 411.929C1052 409.611 1057.39 408.45 1063.13 408.45V406.45C1057.11 406.45 1051.44 407.669 1046.12 410.111L1046.96 411.929ZM1063.13 408.45C1069.7 408.45 1075.55 409.885 1080.71 412.735L1081.67 410.985C1076.19 407.955 1070 406.45 1063.13 406.45V408.45ZM1080.72 412.745C1085.89 415.462 1089.95 419.258 1092.94 424.141L1094.64 423.099C1091.47 417.902 1087.13 413.857 1081.66 410.975L1080.72 412.745ZM1094.58 424.235C1102.76 413.731 1114.35 408.45 1129.49 408.45V406.45C1113.83 406.45 1101.62 411.949 1093 423.005L1094.58 424.235ZM1304.21 409.76H1305.21V408.76H1304.21V409.76ZM1304.21 513.5V514.5H1305.21V513.5H1304.21ZM1275.65 513.5L1274.67 513.667L1274.81 514.5H1275.65V513.5ZM1273.55 501.11L1274.54 500.943L1274.2 498.922L1272.81 500.436L1273.55 501.11ZM1213.28 508.88L1212.75 509.729L1212.76 509.735L1212.77 509.74L1213.28 508.88ZM1195.85 489.77L1194.96 490.223L1194.96 490.229L1195.85 489.77ZM1195.85 433.7L1196.74 434.159L1196.74 434.153L1195.85 433.7ZM1213.28 414.59L1213.8 415.446L1213.8 415.443L1213.28 414.59ZM1258.43 411.44L1258.04 412.359L1258.05 412.363L1258.06 412.367L1258.43 411.44ZM1273.55 421.94L1272.81 422.613L1274.19 424.128L1274.54 422.11L1273.55 421.94ZM1275.65 409.76V408.76H1274.81L1274.67 409.59L1275.65 409.76ZM1264.73 480.74L1265.45 481.436L1265.46 481.431L1265.46 481.426L1264.73 480.74ZM1264.73 442.73L1264.01 443.416L1264.01 443.421L1264.02 443.426L1264.73 442.73ZM1229.03 442.73L1228.31 442.044L1228.3 442.05L1228.29 442.055L1229.03 442.73ZM1229.03 480.53L1228.29 481.205L1228.3 481.21L1228.31 481.216L1229.03 480.53ZM1303.21 409.76V513.5H1305.21V409.76H1303.21ZM1304.21 512.5H1275.65V514.5H1304.21V512.5ZM1276.64 513.333L1274.54 500.943L1272.57 501.277L1274.67 513.667L1276.64 513.333ZM1272.81 500.436C1264.2 509.87 1253 514.6 1239.11 514.6V516.6C1253.51 516.6 1265.27 511.67 1274.29 501.784L1272.81 500.436ZM1239.11 514.6C1229.61 514.6 1221.18 512.399 1213.79 508.02L1212.77 509.74C1220.5 514.321 1229.29 516.6 1239.11 516.6V514.6ZM1213.81 508.031C1206.55 503.511 1200.86 497.278 1196.74 489.311L1194.96 490.229C1199.24 498.502 1205.17 505.009 1212.75 509.729L1213.81 508.031ZM1196.74 489.317C1192.62 481.215 1190.55 471.994 1190.55 461.63H1188.55C1188.55 472.266 1190.68 481.805 1194.96 490.223L1196.74 489.317ZM1190.55 461.63C1190.55 451.266 1192.62 442.118 1196.74 434.159L1194.96 433.241C1190.68 441.522 1188.55 450.994 1188.55 461.63H1190.55ZM1196.74 434.153C1200.87 426.048 1206.55 419.823 1213.8 415.446L1212.77 413.734C1205.17 418.317 1199.24 424.832 1194.96 433.247L1196.74 434.153ZM1213.8 415.443C1221.19 410.928 1229.62 408.66 1239.11 408.66V406.66C1229.29 406.66 1220.49 409.012 1212.76 413.737L1213.8 415.443ZM1239.11 408.66C1245.99 408.66 1252.29 409.897 1258.04 412.359L1258.83 410.521C1252.81 407.943 1246.24 406.66 1239.11 406.66V408.66ZM1258.06 412.367C1263.8 414.692 1268.72 418.106 1272.81 422.613L1274.29 421.267C1269.99 416.534 1264.82 412.948 1258.81 410.513L1258.06 412.367ZM1274.54 422.11L1276.64 409.93L1274.67 409.59L1272.57 421.77L1274.54 422.11ZM1275.65 410.76H1304.21V408.76H1275.65V410.76ZM1246.88 488.88C1254.4 488.88 1260.62 486.41 1265.45 481.436L1264.02 480.044C1259.6 484.59 1253.92 486.88 1246.88 486.88V488.88ZM1265.46 481.426C1270.28 476.31 1272.66 469.68 1272.66 461.63H1270.66C1270.66 469.26 1268.42 475.37 1264.01 480.054L1265.46 481.426ZM1272.66 461.63C1272.66 453.581 1270.28 447.014 1265.45 442.034L1264.02 443.426C1268.42 447.966 1270.66 453.999 1270.66 461.63H1272.66ZM1265.46 442.044C1260.64 436.926 1254.41 434.38 1246.88 434.38V436.38C1253.91 436.38 1259.59 438.734 1264.01 443.416L1265.46 442.044ZM1246.88 434.38C1239.35 434.38 1233.13 436.926 1228.31 442.044L1229.76 443.416C1234.18 438.734 1239.85 436.38 1246.88 436.38V434.38ZM1228.29 442.055C1223.62 447.169 1221.31 453.723 1221.31 461.63H1223.31C1223.31 454.137 1225.49 448.091 1229.77 443.405L1228.29 442.055ZM1221.31 461.63C1221.31 469.537 1223.62 476.091 1228.29 481.205L1229.77 479.855C1225.49 475.169 1223.31 469.123 1223.31 461.63H1221.31ZM1228.31 481.216C1233.13 486.334 1239.35 488.88 1246.88 488.88V486.88C1239.85 486.88 1234.18 484.526 1229.76 479.844L1228.31 481.216ZM1423.65 420.05L1422.91 420.719L1422.91 420.726L1423.65 420.05ZM1435.2 513.5V514.5H1436.2V513.5H1435.2ZM1402.23 513.5H1401.23V514.5H1402.23V513.5ZM1397.19 441.05L1396.44 441.714L1396.44 441.714L1397.19 441.05ZM1367.79 441.89L1367.05 441.22L1367.05 441.22L1367.79 441.89ZM1361.91 513.5V514.5H1362.91V513.5H1361.91ZM1328.94 513.5H1327.94V514.5H1328.94V513.5ZM1328.94 409.76V408.76H1327.94V409.76H1328.94ZM1357.5 409.76L1358.48 409.59L1358.34 408.76H1357.5V409.76ZM1359.6 421.94L1358.61 422.11L1358.97 424.172L1360.35 422.6L1359.6 421.94ZM1374.09 411.23L1373.69 410.314L1373.68 410.318L1374.09 411.23ZM1392.99 408.45C1405.63 408.45 1415.56 412.56 1422.91 420.719L1424.39 419.381C1416.62 410.74 1406.11 406.45 1392.99 406.45V408.45ZM1422.91 420.726C1430.4 428.891 1434.2 440.242 1434.2 454.91H1436.2C1436.2 439.898 1432.3 428.009 1424.39 419.374L1422.91 420.726ZM1434.2 454.91V513.5H1436.2V454.91H1434.2ZM1435.2 512.5H1402.23V514.5H1435.2V512.5ZM1403.23 513.5V456.8H1401.23V513.5H1403.23ZM1403.23 456.8C1403.23 449.917 1401.51 444.402 1397.94 440.386L1396.44 441.714C1399.59 445.258 1401.23 450.243 1401.23 456.8H1403.23ZM1397.94 440.386C1394.35 436.357 1389.44 434.38 1383.33 434.38V436.38C1388.97 436.38 1393.3 438.183 1396.44 441.714L1397.94 440.386ZM1383.33 434.38C1376.64 434.38 1371.18 436.647 1367.05 441.22L1368.53 442.56C1372.24 438.453 1377.14 436.38 1383.33 436.38V434.38ZM1367.05 441.22C1362.93 445.778 1360.91 451.704 1360.91 458.9H1362.91C1362.91 452.096 1364.81 446.682 1368.53 442.56L1367.05 441.22ZM1360.91 458.9V513.5H1362.91V458.9H1360.91ZM1361.91 512.5H1328.94V514.5H1361.91V512.5ZM1329.94 513.5V409.76H1327.94V513.5H1329.94ZM1328.94 410.76H1357.5V408.76H1328.94V410.76ZM1356.51 409.93L1358.61 422.11L1360.58 421.77L1358.48 409.59L1356.51 409.93ZM1360.35 422.6C1364.32 418.087 1369.03 414.603 1374.5 412.142L1373.68 410.318C1367.95 412.897 1363 416.553 1358.85 421.28L1360.35 422.6ZM1374.49 412.146C1380.09 409.686 1386.25 408.45 1392.99 408.45V406.45C1386 406.45 1379.57 407.734 1373.69 410.314L1374.49 412.146ZM1532.48 509.51L1532.93 510.404L1533.69 510.024L1533.43 509.211L1532.48 509.51ZM1478.09 506.15L1477.39 506.865L1477.4 506.872L1478.09 506.15ZM1468.22 436.01H1469.22V435.01H1468.22V436.01ZM1450.58 436.01H1449.58V437.01H1450.58V436.01ZM1450.58 409.76V408.76H1449.58V409.76H1450.58ZM1468.22 409.76V410.76H1469.22V409.76H1468.22ZM1468.22 383.93L1468.11 382.936L1467.22 383.033V383.93H1468.22ZM1500.98 380.36H1501.98V379.245L1500.87 379.366L1500.98 380.36ZM1500.98 409.76H1499.98V410.76H1500.98V409.76ZM1526.81 409.76H1527.81V408.76H1526.81V409.76ZM1526.81 436.01V437.01H1527.81V436.01H1526.81ZM1500.98 436.01V435.01H1499.98V436.01H1500.98ZM1504.13 484.73L1503.42 485.437L1503.43 485.449L1503.45 485.461L1504.13 484.73ZM1524.71 484.73L1525.66 484.431L1525.31 483.311L1524.26 483.836L1524.71 484.73ZM1532.03 508.616C1524.07 512.598 1515.05 514.6 1504.97 514.6V516.6C1515.32 516.6 1524.65 514.542 1532.93 510.404L1532.03 508.616ZM1504.97 514.6C1493.82 514.6 1485.13 511.508 1478.78 505.428L1477.4 506.872C1484.21 513.392 1493.44 516.6 1504.97 516.6V514.6ZM1478.79 505.435C1472.48 499.264 1469.22 489.293 1469.22 475.28H1467.22C1467.22 489.547 1470.53 500.156 1477.39 506.865L1478.79 505.435ZM1469.22 475.28V436.01H1467.22V475.28H1469.22ZM1468.22 435.01H1450.58V437.01H1468.22V435.01ZM1451.58 436.01V409.76H1449.58V436.01H1451.58ZM1450.58 410.76H1468.22V408.76H1450.58V410.76ZM1469.22 409.76V383.93H1467.22V409.76H1469.22ZM1468.33 384.924L1501.09 381.354L1500.87 379.366L1468.11 382.936L1468.33 384.924ZM1499.98 380.36V409.76H1501.98V380.36H1499.98ZM1500.98 410.76H1526.81V408.76H1500.98V410.76ZM1525.81 409.76V436.01H1527.81V409.76H1525.81ZM1526.81 435.01H1500.98V437.01H1526.81V435.01ZM1499.98 436.01V475.28H1501.98V436.01H1499.98ZM1499.98 475.28C1499.98 479.634 1501.07 483.083 1503.42 485.437L1504.84 484.023C1502.99 482.177 1501.98 479.326 1501.98 475.28H1499.98ZM1503.45 485.461C1505.78 487.637 1508.92 488.67 1512.74 488.67V486.67C1509.28 486.67 1506.68 485.743 1504.81 483.999L1503.45 485.461ZM1512.74 488.67C1516.97 488.67 1521.11 487.648 1525.16 485.624L1524.26 483.836C1520.47 485.732 1516.63 486.67 1512.74 486.67V488.67ZM1523.75 485.029L1531.52 509.809L1533.43 509.211L1525.66 484.431L1523.75 485.029ZM1549.66 394.43L1548.97 395.151L1548.98 395.158L1548.98 395.165L1549.66 394.43ZM1549.87 368.6L1549.19 367.865L1549.19 367.865L1549.87 368.6ZM1577.59 368.6L1578.27 367.865L1578.27 367.865L1577.59 368.6ZM1577.59 394.43L1576.91 393.695L1576.91 393.702L1576.9 393.709L1577.59 394.43ZM1547.14 409.76V408.76H1546.14V409.76H1547.14ZM1580.11 409.76H1581.11V408.76H1580.11V409.76ZM1580.11 513.5V514.5H1581.11V513.5H1580.11ZM1547.14 513.5H1546.14V514.5H1547.14V513.5ZM1563.73 398.47C1558.2 398.47 1553.77 396.858 1550.34 393.695L1548.98 395.165C1552.84 398.722 1557.78 400.47 1563.73 400.47V398.47ZM1550.35 393.709C1547.07 390.551 1545.41 386.548 1545.41 381.62H1543.41C1543.41 387.052 1545.26 391.589 1548.97 395.151L1550.35 393.709ZM1545.41 381.62C1545.41 376.556 1547.13 372.49 1550.55 369.335L1549.19 367.865C1545.33 371.43 1543.41 376.044 1543.41 381.62H1545.41ZM1550.55 369.335C1553.98 366.168 1558.35 364.56 1563.73 364.56V362.56C1557.92 362.56 1553.04 364.312 1549.19 367.865L1550.55 369.335ZM1563.73 364.56C1569.12 364.56 1573.48 366.168 1576.91 369.335L1578.27 367.865C1574.42 364.312 1569.55 362.56 1563.73 362.56V364.56ZM1576.91 369.335C1580.33 372.49 1582.05 376.556 1582.05 381.62H1584.05C1584.05 376.044 1582.13 371.43 1578.27 367.865L1576.91 369.335ZM1582.05 381.62C1582.05 386.535 1580.34 390.534 1576.91 393.695L1578.27 395.165C1582.13 391.606 1584.05 387.065 1584.05 381.62H1582.05ZM1576.9 393.709C1573.62 396.858 1569.26 398.47 1563.73 398.47V400.47C1569.68 400.47 1574.56 398.722 1578.28 395.151L1576.9 393.709ZM1547.14 410.76H1580.11V408.76H1547.14V410.76ZM1579.11 409.76V513.5H1581.11V409.76H1579.11ZM1580.11 512.5H1547.14V514.5H1580.11V512.5ZM1548.14 513.5V409.76H1546.14V513.5H1548.14ZM1625.97 509.3L1625.51 510.186L1625.52 510.19L1625.53 510.194L1625.97 509.3ZM1606.02 490.4L1605.15 490.895L1605.16 490.906L1606.02 490.4ZM1606.23 433.49L1607.1 433.996L1607.1 433.989L1606.23 433.49ZM1626.18 414.38L1626.65 415.266L1626.66 415.26L1626.18 414.38ZM1677.84 411.65L1677.47 412.578L1677.48 412.582L1677.49 412.585L1677.84 411.65ZM1696.53 423.62L1697.27 424.295L1697.93 423.58L1697.23 422.904L1696.53 423.62ZM1678.26 443.57L1677.58 444.303L1678.32 444.988L1679 444.245L1678.26 443.57ZM1638.99 442.73L1639.7 443.437L1639.71 443.432L1639.71 443.427L1638.99 442.73ZM1638.78 480.74L1638.06 481.426L1638.07 481.437L1638.08 481.447L1638.78 480.74ZM1679.31 478.85L1680.04 478.162L1679.33 477.416L1678.61 478.143L1679.31 478.85ZM1698 498.59L1698.71 499.301L1699.4 498.613L1698.73 497.902L1698 498.59ZM1656.42 514.81C1644.93 514.81 1634.94 512.664 1626.42 508.406L1625.53 510.194C1634.37 514.616 1644.68 516.81 1656.42 516.81V514.81ZM1626.44 508.414C1618.06 504.019 1611.55 497.849 1606.89 489.894L1605.16 490.906C1610.02 499.191 1616.81 505.621 1625.51 510.186L1626.44 508.414ZM1606.89 489.905C1602.37 481.96 1600.09 472.616 1600.09 461.84H1598.09C1598.09 472.904 1600.44 482.6 1605.15 490.895L1606.89 489.905ZM1600.09 461.84C1600.09 451.212 1602.44 441.941 1607.1 433.996L1605.37 432.984C1600.51 441.279 1598.09 450.908 1598.09 461.84H1600.09ZM1607.1 433.989C1611.76 425.896 1618.27 419.659 1626.65 415.266L1625.72 413.494C1617.01 418.061 1610.22 424.564 1605.37 432.991L1607.1 433.989ZM1626.66 415.26C1635.03 410.73 1644.73 408.45 1655.79 408.45V406.45C1644.45 406.45 1634.42 408.79 1625.71 413.5L1626.66 415.26ZM1655.79 408.45C1663.37 408.45 1670.59 409.827 1677.47 412.578L1678.22 410.722C1671.09 407.873 1663.62 406.45 1655.79 406.45V408.45ZM1677.49 412.585C1684.36 415.195 1690.47 419.11 1695.84 424.336L1697.23 422.904C1691.68 417.49 1685.33 413.425 1678.2 410.715L1677.49 412.585ZM1695.8 422.945L1677.53 442.895L1679 444.245L1697.27 424.295L1695.8 422.945ZM1678.94 442.837C1672.88 437.207 1665.71 434.38 1657.47 434.38V436.38C1665.2 436.38 1671.89 439.013 1677.58 444.303L1678.94 442.837ZM1657.47 434.38C1649.68 434.38 1643.25 436.918 1638.28 442.033L1639.71 443.427C1644.26 438.742 1650.15 436.38 1657.47 436.38V434.38ZM1638.29 442.023C1633.31 447.001 1630.85 453.572 1630.85 461.63H1632.85C1632.85 454.008 1635.16 447.979 1639.7 443.437L1638.29 442.023ZM1630.85 461.63C1630.85 469.68 1633.23 476.31 1638.06 481.426L1639.51 480.054C1635.1 475.37 1632.85 469.26 1632.85 461.63H1630.85ZM1638.08 481.447C1643.05 486.422 1649.55 488.88 1657.47 488.88V486.88C1650 486.88 1644.04 484.578 1639.49 480.033L1638.08 481.447ZM1657.47 488.88C1666.28 488.88 1673.81 485.765 1680.02 479.557L1678.61 478.143C1672.78 483.975 1665.75 486.88 1657.47 486.88V488.88ZM1678.59 479.538L1697.28 499.278L1698.73 497.902L1680.04 478.162L1678.59 479.538ZM1697.3 497.879C1685.87 509.177 1672.26 514.81 1656.42 514.81V516.81C1672.79 516.81 1686.9 510.963 1698.71 499.301L1697.3 497.879ZM1705.29 502.37L1704.41 501.884L1703.97 502.683L1704.72 503.197L1705.29 502.37ZM1717.89 479.69L1718.41 478.837L1717.52 478.293L1717.01 479.204L1717.89 479.69ZM1735.32 486.83L1735.07 487.799L1735.07 487.8L1735.32 486.83ZM1765.14 476.33L1765.58 475.436L1765.14 476.33ZM1752.54 473.81L1752.61 472.813L1752.6 472.812L1752.59 472.811L1752.54 473.81ZM1721.04 463.94L1720.43 464.735L1720.44 464.74L1721.04 463.94ZM1722.09 416.27L1722.67 417.083L1722.68 417.076L1722.09 416.27ZM1779.21 409.97L1778.95 410.936L1778.95 410.937L1779.21 409.97ZM1798.32 418.16L1799.18 418.662L1799.65 417.844L1798.86 417.325L1798.32 418.16ZM1785.51 440.21L1785.01 441.078L1785.87 441.571L1786.37 440.712L1785.51 440.21ZM1744.77 445.88L1744.29 446.762L1744.31 446.769L1744.32 446.774L1744.77 445.88ZM1755.9 448.4L1755.79 449.394L1755.8 449.396L1755.82 449.397L1755.9 448.4ZM1789.71 458.48L1789.12 459.289L1789.12 459.294L1789.71 458.48ZM1788.66 507.2L1789.23 508.017L1789.24 508.011L1788.66 507.2ZM1753.17 515.23C1735 515.23 1719.24 510.657 1705.85 501.543L1704.72 503.197C1718.49 512.563 1734.65 517.23 1753.17 517.23V515.23ZM1706.16 502.856L1718.76 480.176L1717.01 479.204L1704.41 501.884L1706.16 502.856ZM1717.36 480.543C1722.5 483.682 1728.41 486.098 1735.07 487.799L1735.56 485.861C1729.06 484.202 1723.35 481.858 1718.41 478.837L1717.36 480.543ZM1735.07 487.8C1741.87 489.499 1748.6 490.35 1755.27 490.35V488.35C1748.77 488.35 1742.2 487.521 1735.56 485.86L1735.07 487.8ZM1755.27 490.35C1759.87 490.35 1763.48 489.735 1765.98 488.393C1767.24 487.714 1768.23 486.836 1768.91 485.742C1769.59 484.645 1769.92 483.385 1769.92 482H1767.92C1767.92 483.065 1767.67 483.949 1767.21 484.689C1766.75 485.432 1766.04 486.086 1765.03 486.632C1762.97 487.74 1759.76 488.35 1755.27 488.35V490.35ZM1769.92 482C1769.92 480.565 1769.55 479.265 1768.8 478.138C1768.05 477.017 1766.96 476.125 1765.58 475.436L1764.69 477.224C1765.83 477.795 1766.63 478.478 1767.14 479.247C1767.65 480.01 1767.92 480.915 1767.92 482H1769.92ZM1765.58 475.436C1762.87 474.082 1758.51 473.234 1752.61 472.813L1752.46 474.807C1758.32 475.226 1762.36 476.058 1764.69 477.224L1765.58 475.436ZM1752.59 472.811C1739.56 472.118 1729.27 468.866 1721.64 463.14L1720.44 464.74C1728.48 470.774 1739.19 474.102 1752.48 474.809L1752.59 472.811ZM1721.64 463.145C1714.18 457.45 1710.49 450.042 1710.49 440.84H1708.49C1708.49 450.678 1712.49 458.67 1720.43 464.735L1721.64 463.145ZM1710.49 440.84C1710.49 430.801 1714.53 422.914 1722.67 417.083L1721.5 415.457C1712.84 421.666 1708.49 430.159 1708.49 440.84H1710.49ZM1722.68 417.076C1730.85 411.081 1741.96 408.03 1756.11 408.03V406.03C1741.69 406.03 1730.12 409.139 1721.49 415.464L1722.68 417.076ZM1756.11 408.03C1764.14 408.03 1771.76 409 1778.95 410.936L1779.47 409.004C1772.09 407.02 1764.31 406.03 1756.11 406.03V408.03ZM1778.95 410.937C1786.29 412.875 1792.55 415.566 1797.77 418.995L1798.86 417.325C1793.44 413.754 1786.96 410.985 1779.46 409.003L1778.95 410.937ZM1797.45 417.658L1784.64 439.708L1786.37 440.712L1799.18 418.662L1797.45 417.658ZM1786 439.342C1777.98 434.76 1768.5 432.49 1757.58 432.49V434.49C1768.21 434.49 1777.35 436.7 1785.01 441.078L1786 439.342ZM1757.58 432.49C1752.21 432.49 1748.04 433.121 1745.18 434.476C1743.73 435.16 1742.58 436.047 1741.79 437.167C1741 438.296 1740.62 439.604 1740.62 441.05H1742.62C1742.62 439.976 1742.89 439.079 1743.43 438.318C1743.97 437.548 1744.82 436.86 1746.03 436.284C1748.49 435.119 1752.3 434.49 1757.58 434.49V432.49ZM1740.62 441.05C1740.62 442.275 1740.92 443.396 1741.56 444.379C1742.2 445.355 1743.13 446.142 1744.29 446.762L1745.24 444.998C1744.3 444.498 1743.65 443.92 1743.24 443.286C1742.83 442.659 1742.62 441.925 1742.62 441.05H1740.62ZM1744.32 446.774C1746.73 447.979 1750.59 448.832 1755.79 449.394L1756 447.406C1750.84 446.848 1747.28 446.021 1745.21 444.986L1744.32 446.774ZM1755.82 449.397C1770.57 450.51 1781.63 453.843 1789.12 459.289L1790.29 457.671C1782.38 451.917 1770.9 448.53 1755.97 447.403L1755.82 449.397ZM1789.12 459.294C1796.69 464.696 1800.47 472.225 1800.47 482H1802.47C1802.47 471.615 1798.4 463.464 1790.29 457.666L1789.12 459.294ZM1800.47 482C1800.47 492.323 1796.35 500.419 1788.07 506.389L1789.24 508.011C1798.04 501.661 1802.47 492.957 1802.47 482H1800.47ZM1788.08 506.383C1779.77 512.241 1768.17 515.23 1753.17 515.23V517.23C1768.4 517.23 1780.46 514.199 1789.23 508.017L1788.08 506.383Z" fill="#FAE04D"/>
<defs>
<clipPath id="clip0_448_383">
<rect width="610" height="606" rx="303" fill="white"/>
</clipPath>
<clipPath id="clip1_448_383">
<rect x="2" width="605.893" height="605.895" rx="302.946" fill="white"/>
</clipPath>
</defs>
</svg>
