<svg width="705" height="556" viewBox="0 0 705 556" fill="none" xmlns="http://www.w3.org/2000/svg">
<path d="M374.48 88.7466L296.193 9.99732C289.995 3.83585 281.6 0.393177 272.86 0.429577H66.4733C48.9573 0.429577 32.1613 7.38798 19.78 19.7736C7.3945 32.1538 0.435974 48.9509 0.435974 66.4669V88.2842L374.48 88.7466Z" fill="#F6AE2D"/>
<path d="M638.853 115L0.453308 115.818V489.151C0.453308 506.662 7.41171 523.458 19.7973 535.844C32.1776 548.225 48.9746 555.183 66.4906 555.183H638.851C656.367 555.183 673.163 548.225 685.544 535.844C697.929 523.459 704.888 506.662 704.888 489.151V181.498C704.977 163.914 698.065 147.014 685.675 134.539C673.284 122.06 656.435 115.028 638.852 114.998L638.853 115Z" fill="#F6AE2D"/>
</svg>
